<?xml version="1.0" encoding="UTF-8" standalone="no"?>
<svg
   width="32"
   height="32"
   viewBox="0 0 32 32"
   version="1.1"
   xml:space="preserve"
   style="clip-rule:evenodd;fill-rule:evenodd;stroke-linecap:round;stroke-miterlimit:1.5"
   id="svg1584"
   sodipodi:docname="bombardier_toronto_t1.svg"
   inkscape:export-filename="../../../../../home/adryd/Documents/t1.png"
   inkscape:export-xdpi="3072"
   inkscape:export-ydpi="3072"
   inkscape:version="1.3.1 (91b66b0783, 2023-11-16, custom)"
   xmlns:inkscape="http://www.inkscape.org/namespaces/inkscape"
   xmlns:sodipodi="http://sodipodi.sourceforge.net/DTD/sodipodi-0.dtd"
   xmlns="http://www.w3.org/2000/svg"
   xmlns:svg="http://www.w3.org/2000/svg"><defs
   id="defs1588" /><sodipodi:namedview
   id="namedview1586"
   pagecolor="#ffffff"
   bordercolor="#000000"
   borderopacity="0.25"
   inkscape:showpageshadow="2"
   inkscape:pageopacity="0.0"
   inkscape:pagecheckerboard="0"
   inkscape:deskcolor="#d1d1d1"
   showgrid="true"
   inkscape:zoom="21.394765"
   inkscape:cx="16.849916"
   inkscape:cy="14.115602"
   inkscape:window-width="1920"
   inkscape:window-height="1012"
   inkscape:window-x="0"
   inkscape:window-y="32"
   inkscape:window-maximized="1"
   inkscape:current-layer="g1582"><inkscape:grid
     type="xygrid"
     id="grid2657"
     originx="0"
     originy="0"
     spacingy="1"
     spacingx="1"
     units="px"
     visible="true" /></sodipodi:namedview>


    <g
   id="g1582">
        <clipPath
   id="_clip1">
            <rect
   x="0"
   y="0"
   width="32"
   height="32"
   id="rect1513" />
        </clipPath>
        <path
   id="path2704"
   style="clip-rule:evenodd;display:inline;fill:none;fill-rule:evenodd;stroke:#000000;stroke-width:4;stroke-linecap:round;stroke-miterlimit:1.5;stroke-dasharray:none;stroke-opacity:1;paint-order:markers stroke fill"
   d="M 10,6 C 8,6 6,8.000001 6,9 v 14 1 3 h 3 l 1,-1 h 12 l 1,1 h 3 V 24 23 9 C 26,8.000001 24,6 22,6 h -6 z"
   transform="translate(0,-1)"
   sodipodi:nodetypes="ssccccccccccsscs" />
    <rect
   style="clip-rule:evenodd;fill:#777777;fill-opacity:1;fill-rule:evenodd;stroke:#000000;stroke-width:4;stroke-linecap:butt;stroke-linejoin:miter;stroke-miterlimit:1.5;stroke-dasharray:none;stroke-opacity:1;paint-order:markers stroke fill"
   id="rect4044"
   width="24"
   height="2"
   x="4"
   y="28"
   ry="0"
   rx="0" /><path
   d="M 26,9 C 26,8 24,6 22,6 H 16 C 16,6 12,6 10,6 8,6 6,8 6,9 v 15 h 20 z"
   style="clip-rule:evenodd;display:inline;fill:#777777;fill-rule:evenodd;stroke-linecap:round;stroke-miterlimit:1.5"
   id="path1524"
   sodipodi:nodetypes="czszcccc"
   transform="translate(0,-1)" /><path
   d="M 20,22 19.989,21 H 12 v 1 H 6 v 4 h 3 l 1,-1 h 12 l 1,1 h 3 v -4 z"
   style="clip-rule:evenodd;fill:#1a1a1a;fill-rule:evenodd;stroke-linecap:round;stroke-miterlimit:1.5"
   id="path1578" /><circle
   cx="22"
   cy="24"
   r="1"
   style="clip-rule:evenodd;fill:#ffffff;fill-rule:evenodd;stroke-linecap:round;stroke-miterlimit:1.5"
   id="circle1530"
   transform="translate(0,-17)" /><circle
   cx="22"
   cy="24"
   r="1"
   style="clip-rule:evenodd;fill:#ffffff;fill-rule:evenodd;stroke-linecap:round;stroke-miterlimit:1.5"
   id="circle1534"
   transform="translate(-12,-17)" /><rect
   x="13"
   y="5.9869156"
   width="6"
   height="1.0130844"
   style="clip-rule:evenodd;fill:#333333;fill-rule:evenodd;stroke-width:1.00652;stroke-linecap:round;stroke-miterlimit:1.5"
   id="rect1554" /><path
   d="m 7,19 h 4 v 1 H 7 v 1 h 4 v 1 H 7 v 1 H 6 v -5 h 1 z"
   style="clip-rule:evenodd;fill:#888888;fill-rule:evenodd;stroke-linecap:round;stroke-miterlimit:1.5"
   id="path1538"
   transform="translate(0,-2)" /><path
   d="m 26,18 v 5 h -1 v -1 h -4 v -1 h 4 v -1 h -4 v -1 h 4 v -1 z"
   style="clip-rule:evenodd;fill:#888888;fill-rule:evenodd;stroke-linecap:round;stroke-miterlimit:1.5"
   id="path1542"
   transform="translate(0,-2)" /><path
   d="m 18,11 c 0.55,0 0.997,0.445 1,0.994 V 12 23 H 13 V 12 11.994 C 13.003,11.445 13.45,11 14,11 Z"
   style="clip-rule:evenodd;fill:#666666;fill-rule:evenodd;stroke-linecap:round;stroke-miterlimit:1.5"
   id="path1546"
   transform="translate(0,-2)" /><path
   d="m 21,11 h 3 c 0.552,0 1,0.448 1,1 v 4 c 0,0.55 -0.445,0.997 -0.994,1 H 24 21 c -0.552,0 -1,-0.448 -1,-1 v -4 c 0,-0.552 0.448,-1 1,-1 z"
   id="path1550"
   style="clip-rule:evenodd;fill-rule:evenodd;stroke-linecap:round;stroke-miterlimit:1.5"
   transform="translate(0,-2)" /><path
   d="m 12,16 c 0,0.552 -0.448,1 -1,1 H 8 C 7.448,17 7,16.552 7,16 v -4 c 0,-0.552 0.448,-1 1,-1 h 3 c 0.55,0 0.997,0.445 1,0.994 V 12 Z"
   id="path1562"
   style="clip-rule:evenodd;fill-rule:evenodd;stroke-linecap:round;stroke-miterlimit:1.5"
   transform="translate(0,-2)" /><path
   d="M 14.994,18 C 14.445,17.997 14,17.55 14,17 v -4 c 0,-0.552 0.448,-1 1,-1 h 2 c 0.552,0 1,0.448 1,1 v 4 c 0,0.55 -0.445,0.997 -0.994,1 H 17 15 Z"
   id="path1566"
   style="clip-rule:evenodd;fill-rule:evenodd;stroke-linecap:round;stroke-miterlimit:1.5"
   transform="translate(0,-2)" /><path
   d="m 12,24 h -2 v 2.5 c 0,0.133 0.053,0.26 0.146,0.354 C 10.24,26.947 10.367,27 10.5,27 h 1 c 0.133,0 0.26,-0.053 0.354,-0.146 C 11.947,26.76 12,26.633 12,26.5 Z"
   style="clip-rule:evenodd;fill:#262626;fill-rule:evenodd;stroke-linecap:round;stroke-miterlimit:1.5"
   id="path1570"
   transform="translate(-0.0263628,1)" /><path
   d="m 22,24 h -2 v 2.5 c 0,0.133 0.053,0.26 0.146,0.354 C 20.24,26.947 20.367,27 20.5,27 h 1 c 0.133,0 0.26,-0.053 0.354,-0.146 C 21.947,26.76 22,26.633 22,26.5 Z"
   style="clip-rule:evenodd;fill:#262626;fill-rule:evenodd;stroke-linecap:round;stroke-miterlimit:1.5"
   id="path1574"
   transform="translate(-0.0171758,1)" /></g>
</svg>
