<?xml version="1.0" encoding="UTF-8" standalone="no"?>
<svg
   width="32"
   height="32"
   viewBox="0 0 32 32"
   version="1.1"
   xml:space="preserve"
   style="clip-rule:evenodd;fill-rule:evenodd;stroke-linecap:round;stroke-miterlimit:1.5"
   id="svg1584"
   sodipodi:docname="t1.svg"
   inkscape:export-filename="../../../../../home/adryd/Documents/gobilevel.png"
   inkscape:export-xdpi="3072"
   inkscape:export-ydpi="3072"
   xmlns:inkscape="http://www.inkscape.org/namespaces/inkscape"
   xmlns:sodipodi="http://sodipodi.sourceforge.net/DTD/sodipodi-0.dtd"
   xmlns="http://www.w3.org/2000/svg"
   xmlns:svg="http://www.w3.org/2000/svg"><defs
   id="defs1588" /><sodipodi:namedview
   id="namedview1586"
   pagecolor="#ffffff"
   bordercolor="#000000"
   borderopacity="0.25"
   inkscape:showpageshadow="2"
   inkscape:pageopacity="0.0"
   inkscape:pagecheckerboard="0"
   inkscape:deskcolor="#d1d1d1"
   showgrid="false"
   inkscape:zoom="57.552811"
   inkscape:cx="21.936374"
   inkscape:cy="5.7859902"
   inkscape:window-width="1920"
   inkscape:window-height="1011"
   inkscape:window-x="0"
   inkscape:window-y="32"
   inkscape:window-maximized="1"
   inkscape:current-layer="g1582"
   showguides="false"><inkscape:grid
     type="xygrid"
     id="grid2657"
     empspacing="2"
     spacingx="0.5"
     spacingy="0.5" /></sodipodi:namedview>


    <g
   id="g1582">
        <clipPath
   id="_clip1">
            <rect
   x="0"
   y="0"
   width="32"
   height="32"
   id="rect1513" />
        </clipPath>

    <rect
   style="clip-rule:evenodd;fill:#777777;fill-opacity:1;fill-rule:evenodd;stroke:#000000;stroke-width:4;stroke-linecap:butt;stroke-linejoin:miter;stroke-miterlimit:1.5;stroke-dasharray:none;stroke-opacity:1;paint-order:markers stroke fill"
   id="rect4044"
   width="24"
   height="2"
   x="4"
   y="28"
   ry="0"
   rx="0" /><path
   style="clip-rule:evenodd;fill:#ececec;fill-opacity:1;fill-rule:evenodd;stroke:#000000;stroke-width:4;stroke-linecap:butt;stroke-linejoin:miter;stroke-miterlimit:1.5;stroke-dasharray:none;stroke-opacity:1;paint-order:markers stroke fill"
   d="M 7,26 H 25 V 17.673316 4 C 25,2.700964 19.5,2 16,2 12.5,2 7,2.5 7,4 Z"
   id="path24960"
   sodipodi:nodetypes="cccczcc" /><path
   d="m 12,24 h -2 v 2.5 c 0,0.133 0.053,0.26 0.146,0.354 C 10.24,26.947 10.367,27 10.5,27 h 1 c 0.133,0 0.26,-0.053 0.354,-0.146 C 11.947,26.76 12,26.633 12,26.5 Z"
   style="clip-rule:evenodd;fill:#262626;fill-rule:evenodd;stroke-linecap:round;stroke-miterlimit:1.5"
   id="path1570"
   transform="translate(-0.0263628,1)" /><path
   d="m 22,24 h -2 v 2.5 c 0,0.133 0.053,0.26 0.146,0.354 C 20.24,26.947 20.367,27 20.5,27 h 1 c 0.133,0 0.26,-0.053 0.354,-0.146 C 21.947,26.76 22,26.633 22,26.5 Z"
   style="clip-rule:evenodd;fill:#262626;fill-rule:evenodd;stroke-linecap:round;stroke-miterlimit:1.5"
   id="path1574"
   transform="translate(-0.0171758,1)" /><path
   d="m 7,23 v 3 h 18 v -3 z"
   style="clip-rule:evenodd;fill:#1a1a1a;fill-rule:evenodd;stroke-linecap:round;stroke-miterlimit:1.5"
   id="path1578"
   sodipodi:nodetypes="ccccc" /><path
   style="clip-rule:evenodd;fill:#e6e6e6;fill-opacity:1;fill-rule:evenodd;stroke:none;stroke-width:4;stroke-linecap:butt;stroke-linejoin:miter;stroke-miterlimit:1.5;stroke-dasharray:none;stroke-opacity:1;paint-order:markers stroke fill"
   d="m 7,23 1,-1 h 16 l 1,1 V 4 C 25,2.700964 19.5,2 16,2 12.5,2 7,2.5 7,4 Z"
   id="path22562"
   sodipodi:nodetypes="ccccczcc" /><path
   style="clip-rule:evenodd;fill:#cccccc;fill-opacity:1;fill-rule:evenodd;stroke:none;stroke-width:4;stroke-linecap:butt;stroke-linejoin:miter;stroke-miterlimit:1.5;stroke-dasharray:none;stroke-opacity:1;paint-order:markers stroke fill"
   d="m 7,23 c 0,0 1,-3 4,-3 h 10 c 3,0 4,3 4,3 v 1 L 23,23 H 9.1209238 L 7,24 Z"
   id="path25096"
   sodipodi:nodetypes="csscccccc" /><path
   style="fill:#1a1a1a;fill-opacity:1;stroke:none;stroke-width:4;stroke-linecap:butt;stroke-linejoin:miter;stroke-dasharray:none;stroke-opacity:1;paint-order:markers stroke fill"
   d="m 9,5 c 0,0 1,-1 7,-1 6,0 7,1 7,1 0,0 0.5,2 0.5,4 0,2 -0.5,4 -0.5,4 0,0 -1,1 -7,1 C 10,14 9,13 9,13 9,13 8.5,11 8.5,9 8.5,7 9,5 9,5 Z"
   id="path22673"
   sodipodi:nodetypes="czczczczc" /><path
   style="clip-rule:evenodd;fill:#808080;fill-opacity:1;fill-rule:evenodd;stroke:none;stroke-width:4;stroke-linecap:butt;stroke-linejoin:miter;stroke-miterlimit:1.5;stroke-dasharray:none;stroke-opacity:1;paint-order:markers stroke fill"
   d="M 11,17 H 9.5000014 L 9.1876888,17.891044 10.417975,18.813171 11,17"
   id="path24839"
   sodipodi:nodetypes="ccccc" /><circle
   style="fill:#808080;fill-opacity:1;stroke:none;stroke-width:4;stroke-linecap:butt;stroke-linejoin:miter;stroke-dasharray:none;stroke-opacity:1;paint-order:markers stroke fill"
   id="path22727"
   cx="15"
   cy="16"
   r="1" /><circle
   style="fill:#808080;fill-opacity:1;stroke:none;stroke-width:4;stroke-linecap:butt;stroke-linejoin:miter;stroke-dasharray:none;stroke-opacity:1;paint-order:markers stroke fill"
   id="path22729"
   cx="17"
   cy="16"
   r="1" /><rect
   style="fill:#808080;fill-opacity:1;stroke:none;stroke-width:4;stroke-linecap:butt;stroke-linejoin:miter;stroke-dasharray:none;stroke-opacity:1;paint-order:markers stroke fill"
   id="rect22783"
   width="2"
   height="2"
   x="15"
   y="15" /><circle
   style="fill:#999999;fill-opacity:1;stroke:none;stroke-width:4;stroke-linecap:butt;stroke-linejoin:miter;stroke-dasharray:none;stroke-opacity:1;paint-order:markers stroke fill"
   id="path22785"
   cx="11"
   cy="18"
   r="1" /><rect
   x="62.423267"
   y="24.352896"
   width="0.99999863"
   height="1"
   style="clip-rule:evenodd;fill:#e9a620;fill-rule:evenodd;stroke-width:0.408248;stroke-linecap:round;stroke-miterlimit:1.5"
   id="rect1554-6"
   ry="0.49999931"
   transform="translate(-53.423266,-7.3528956)" /><rect
   style="fill:#5aa02c;fill-opacity:1;stroke:none;stroke-width:4.89898;stroke-linecap:butt;stroke-linejoin:miter;stroke-dasharray:none;stroke-opacity:1;paint-order:markers stroke fill"
   id="rect24391"
   width="4"
   height="1"
   x="14"
   y="21" /><path
   style="clip-rule:evenodd;fill:#808080;fill-opacity:1;fill-rule:evenodd;stroke:none;stroke-width:4;stroke-linecap:butt;stroke-linejoin:miter;stroke-miterlimit:1.5;stroke-dasharray:none;stroke-opacity:1;paint-order:markers stroke fill"
   d="m 21,17 h 1.499999 l 0.312312,0.891044 -1.230286,0.922127 L 21,17"
   id="path24839-0"
   sodipodi:nodetypes="ccccc" /><circle
   style="clip-rule:evenodd;fill:#999999;fill-opacity:1;fill-rule:evenodd;stroke:none;stroke-width:4;stroke-linecap:butt;stroke-linejoin:miter;stroke-miterlimit:1.5;stroke-dasharray:none;stroke-opacity:1;paint-order:markers stroke fill"
   id="path22785-2"
   cx="-21"
   cy="18.000002"
   r="1"
   transform="scale(-1,1)" /><rect
   x="-22.999998"
   y="17.000002"
   width="0.99999863"
   height="1"
   style="clip-rule:evenodd;fill:#e9a620;fill-rule:evenodd;stroke-width:0.408248;stroke-linecap:round;stroke-miterlimit:1.5"
   id="rect1554-6-3"
   ry="0.49999931"
   transform="scale(-1,1)" /><rect
   style="fill:#000000;fill-opacity:1;stroke:none;stroke-width:4;stroke-linecap:butt;stroke-linejoin:miter;stroke-dasharray:none;stroke-opacity:1;paint-order:markers stroke fill"
   id="rect25280"
   width="12"
   height="6"
   x="10"
   y="6"
   ry="1" /></g>
</svg>
