<?xml version="1.0" encoding="UTF-8" standalone="no"?>
<svg
   width="32"
   height="32"
   viewBox="0 0 32 32"
   version="1.1"
   xml:space="preserve"
   style="clip-rule:evenodd;fill-rule:evenodd;stroke-linecap:round;stroke-miterlimit:1.5"
   id="svg1584"
   sodipodi:docname="bombardier_toronto_tr.svg"
   inkscape:export-filename="../../../../../home/adryd/Documents/tr.png"
   inkscape:export-xdpi="3072"
   inkscape:export-ydpi="3072"
   inkscape:version="1.3.2 (091e20ef0f, 2023-11-25, custom)"
   xmlns:inkscape="http://www.inkscape.org/namespaces/inkscape"
   xmlns:sodipodi="http://sodipodi.sourceforge.net/DTD/sodipodi-0.dtd"
   xmlns="http://www.w3.org/2000/svg"
   xmlns:svg="http://www.w3.org/2000/svg"><defs
   id="defs1588" /><sodipodi:namedview
   id="namedview1586"
   pagecolor="#ffffff"
   bordercolor="#000000"
   borderopacity="0.25"
   inkscape:showpageshadow="2"
   inkscape:pageopacity="0.0"
   inkscape:pagecheckerboard="0"
   inkscape:deskcolor="#d1d1d1"
   showgrid="false"
   inkscape:zoom="26.373513"
   inkscape:cx="20.854256"
   inkscape:cy="19.223832"
   inkscape:window-width="1920"
   inkscape:window-height="1012"
   inkscape:window-x="0"
   inkscape:window-y="32"
   inkscape:window-maximized="1"
   inkscape:current-layer="g1582"><inkscape:grid
     type="xygrid"
     id="grid2657"
     originx="0"
     originy="0"
     spacingy="1"
     spacingx="1"
     units="px"
     visible="false" /></sodipodi:namedview>


    <g
   id="g1582">
        <clipPath
   id="_clip1">
            <rect
   x="0"
   y="0"
   width="32"
   height="32"
   id="rect1513" />
        </clipPath>
        <path
   id="path2704"
   style="clip-rule:evenodd;display:inline;fill:none;fill-rule:evenodd;stroke:#000000;stroke-width:4;stroke-linecap:round;stroke-miterlimit:1.5;stroke-dasharray:none;stroke-opacity:1;paint-order:markers stroke fill"
   d="M 10,6 C 8,6 6,8.000001 6,9 v 14 1 3 h 3 l 1,-1 h 12 l 1,1 h 3 V 24 23 9 C 26,8.000001 24,6 22,6 h -6 z"
   transform="translate(0,-1)"
   sodipodi:nodetypes="ssccccccccccsscs" />
    <rect
   style="clip-rule:evenodd;fill:#777777;fill-opacity:1;fill-rule:evenodd;stroke:#000000;stroke-width:4;stroke-linecap:butt;stroke-linejoin:miter;stroke-miterlimit:1.5;stroke-dasharray:none;stroke-opacity:1;paint-order:markers stroke fill"
   id="rect4044"
   width="24"
   height="2"
   x="4"
   y="28"
   ry="0"
   rx="0" /><path
   d="m 6,9 v 17 h 3 l 1,-1 h 12 l 1,1 h 3 V 9 Z"
   style="clip-rule:evenodd;fill:#777777;fill-opacity:1;fill-rule:evenodd;stroke-linecap:round;stroke-miterlimit:1.5"
   id="path1578"
   sodipodi:nodetypes="ccccccccc" /><path
   d="M 26,9 C 26,8 24,6 22,6 H 16 10 C 8,6 6,8 6,9 v 6 c 0,0 0,4 10,4 10,0 10,-4 10,-4 z"
   style="clip-rule:evenodd;display:inline;fill:#292929;fill-opacity:1;fill-rule:evenodd;stroke-linecap:round;stroke-miterlimit:1.5"
   id="path1524"
   sodipodi:nodetypes="czszcczcc"
   transform="translate(0,-1)" /><rect
   x="12"
   y="10"
   width="6"
   height="1"
   style="clip-rule:evenodd;fill:#e9a620;fill-rule:evenodd;stroke-linecap:round;stroke-miterlimit:1.5"
   id="rect1554"
   transform="matrix(0.666667,0,0,1,5,-4)" /><rect
   x="19"
   y="10"
   width="1"
   height="1"
   style="clip-rule:evenodd;fill:#e9a620;fill-rule:evenodd;stroke-linecap:round;stroke-miterlimit:1.5"
   id="rect1558"
   transform="translate(-1,-4)" /><path
   d="m 18,11 c 0.55,0 0.997,0.445 1,0.994 V 12 23 H 13 V 12 11.994 C 13.003,11.445 13.45,11 14,11 Z"
   style="clip-rule:evenodd;display:inline;fill:#666666;fill-rule:evenodd;stroke-linecap:round;stroke-miterlimit:1.5"
   id="path1546"
   transform="translate(0,-2)" /><path
   id="path18221"
   style="clip-rule:evenodd;display:inline;fill:#383838;fill-opacity:1;fill-rule:evenodd;stroke-linecap:round;stroke-miterlimit:1.5"
   d="m 14,10 c -0.549999,0 -0.997,0.445141 -1,0.994141 V 11 18.857422 C 13.885338,18.947084 14.876317,19 16,19 c 1.123683,0 2.114662,-0.05292 3,-0.142578 V 11 10.994141 C 18.997,10.445141 18.549999,10 18,10 Z"
   transform="translate(0,-1)" /><path
   d="M 14.994,18 C 14.445,17.997 14,17.55 14,17 v -4 c 0,-0.552 0.448,-1 1,-1 h 2 c 0.552,0 1,0.448 1,1 v 4 c 0,0.55 -0.445,0.997 -0.994,1 H 17 15 Z"
   id="path1566"
   style="clip-rule:evenodd;fill-rule:evenodd;stroke-linecap:round;stroke-miterlimit:1.5;fill:#000000;fill-opacity:1"
   transform="translate(0,-2)" /><path
   d="m 12,24 h -2 v 2.5 c 0,0.133 0.053,0.26 0.146,0.354 C 10.24,26.947 10.367,27 10.5,27 h 1 c 0.133,0 0.26,-0.053 0.354,-0.146 C 11.947,26.76 12,26.633 12,26.5 Z"
   style="clip-rule:evenodd;fill:#262626;fill-rule:evenodd;stroke-linecap:round;stroke-miterlimit:1.5"
   id="path1570"
   transform="translate(-0.0263628,1)" /><path
   d="m 22,24 h -2 v 2.5 c 0,0.133 0.053,0.26 0.146,0.354 C 20.24,26.947 20.367,27 20.5,27 h 1 c 0.133,0 0.26,-0.053 0.354,-0.146 C 21.947,26.76 22,26.633 22,26.5 Z"
   style="clip-rule:evenodd;fill:#262626;fill-rule:evenodd;stroke-linecap:round;stroke-miterlimit:1.5"
   id="path1574"
   transform="translate(-0.0171758,1)" /><path
   style="clip-rule:evenodd;fill:#1a1a1a;fill-opacity:1;fill-rule:evenodd;stroke:none;stroke-width:4;stroke-linecap:butt;stroke-linejoin:miter;stroke-miterlimit:1.5;stroke-dasharray:none;stroke-opacity:1;paint-order:markers stroke fill"
   d="M 12,24 H 6 v -4 c 0,0 5,1 10,1 5,0 10,-1 10,-1 v 4 h -6 z"
   id="path5999"
   sodipodi:nodetypes="ccczcccc" /><circle
   cx="8"
   cy="22.268557"
   r="1"
   style="clip-rule:evenodd;fill:#ffffff;fill-rule:evenodd;stroke-linecap:round;stroke-miterlimit:1.5"
   id="circle1530-3-5" /><rect
   style="fill:#1a1a1a;fill-opacity:1;stroke:none;stroke-width:4;stroke-linecap:butt;stroke-linejoin:miter;stroke-dasharray:none;stroke-opacity:1;paint-order:markers stroke fill"
   id="rect4368"
   width="8"
   height="3"
   x="12"
   y="22" /><path
   id="rect18187"
   style="fill:#000000;fill-opacity:1;stroke:none;stroke-width:4;stroke-linecap:butt;stroke-linejoin:miter;stroke-dasharray:none;stroke-opacity:1;paint-order:markers stroke fill"
   d="M 8,9 C 7.4460006,9 7,9.4460006 7,10 v 1 1 1 c 0,1.107999 0.8920011,2 2,2 h 1 1 c 0.553999,0 1,-0.446001 1,-1 V 13 11 10 C 12,9.4460006 11.553999,9 11,9 H 10 9 Z" /><path
   id="rect18187-5"
   style="clip-rule:evenodd;fill:#000000;fill-opacity:1;fill-rule:evenodd;stroke:none;stroke-width:4;stroke-linecap:butt;stroke-linejoin:miter;stroke-miterlimit:1.5;stroke-dasharray:none;stroke-opacity:1;paint-order:markers stroke fill"
   d="m 24,9 c 0.553999,0 1,0.4460006 1,1 v 1 1 1 c 0,1.107999 -0.892001,2 -2,2 h -1 -1 c -0.553999,0 -1,-0.446001 -1,-1 v -1 -2 -1 c 0,-0.5539994 0.446001,-1 1,-1 h 1 1 z" /><circle
   cx="24"
   cy="22.268557"
   r="1"
   style="clip-rule:evenodd;fill:#ffffff;fill-rule:evenodd;stroke-linecap:round;stroke-miterlimit:1.5"
   id="circle18581" /><ellipse
   style="fill:#f9f9f9;fill-opacity:0;stroke:none;stroke-width:4;stroke-linecap:butt;stroke-linejoin:miter;stroke-dasharray:none;stroke-opacity:1;paint-order:markers stroke fill"
   id="path18741"
   cx="10.576838"
   cy="6.4943991"
   rx="0.50971127"
   ry="0.56243736" /><circle
   style="fill:#777777;fill-opacity:1;stroke:none;stroke-width:1.63299;stroke-linecap:butt;stroke-linejoin:miter;stroke-dasharray:none;stroke-opacity:1;paint-order:markers stroke fill"
   id="path18797"
   cx="10"
   cy="6.5"
   r="0.5" /><circle
   style="clip-rule:evenodd;fill:#666666;fill-opacity:1;fill-rule:evenodd;stroke:none;stroke-width:1.63299;stroke-linecap:butt;stroke-linejoin:miter;stroke-miterlimit:1.5;stroke-dasharray:none;stroke-opacity:1;paint-order:markers stroke fill"
   id="path18797-2"
   cx="22"
   cy="6.5"
   r="0.5" /></g>
</svg>
