<?xml version="1.0" encoding="UTF-8" standalone="no"?>
<svg
   width="32"
   height="32"
   viewBox="0 0 32 32"
   version="1.1"
   xml:space="preserve"
   style="clip-rule:evenodd;fill-rule:evenodd;stroke-linecap:round;stroke-miterlimit:1.5"
   id="svg1584"
   sodipodi:docname="frecciarossa_etr500.svg"
   inkscape:export-filename="../../../../../home/adryd/Documents/gobilevel.png"
   inkscape:export-xdpi="3072"
   inkscape:export-ydpi="3072"
   inkscape:version="1.3.2 (091e20ef0f, 2023-11-25, custom)"
   xmlns:inkscape="http://www.inkscape.org/namespaces/inkscape"
   xmlns:sodipodi="http://sodipodi.sourceforge.net/DTD/sodipodi-0.dtd"
   xmlns="http://www.w3.org/2000/svg"
   xmlns:svg="http://www.w3.org/2000/svg"><defs
   id="defs1588"><inkscape:path-effect
     effect="fillet_chamfer"
     id="path-effect13"
     is_visible="true"
     lpeversion="1"
     nodesatellites_param="F,0,0,1,0,0,0,1 @ F,0,0,1,0,1.6325398,0,1 @ F,0,0,1,0,1.5808956,0,1 @ F,0,0,1,0,0,0,1 @ F,0,0,1,0,0,0,1 @ F,0,0,1,0,0,0,1"
     radius="0"
     unit="px"
     method="auto"
     mode="F"
     chamfer_steps="1"
     flexible="false"
     use_knot_distance="true"
     apply_no_radius="true"
     apply_with_radius="true"
     only_selected="false"
     hide_knots="false" /><inkscape:path-effect
     effect="fillet_chamfer"
     id="path-effect12"
     is_visible="true"
     lpeversion="1"
     nodesatellites_param="F,0,0,1,0,0,0,1 @ F,0,0,1,0,0,0,1 @ F,0,0,1,0,0,0,1 @ F,0,0,1,0,2.0252866,0,1 @ F,0,0,1,0,1.9706049,0,1 @ F,0,0,1,0,0,0,1 @ F,0,0,1,0,0,0,1"
     radius="0"
     unit="px"
     method="auto"
     mode="F"
     chamfer_steps="1"
     flexible="false"
     use_knot_distance="true"
     apply_no_radius="true"
     apply_with_radius="true"
     only_selected="false"
     hide_knots="false" /><inkscape:path-effect
     effect="fillet_chamfer"
     id="path-effect10"
     is_visible="true"
     lpeversion="1"
     nodesatellites_param="F,0,0,1,0,0,0,1 @ F,0,0,1,0,0,0,1 @ F,0,0,1,0,0,0,1 @ F,0,0,1,0,2.0252866,0,1 @ F,0,0,1,0,1.9706049,0,1 @ F,0,0,1,0,0,0,1 @ F,0,0,1,0,0,0,1"
     radius="0"
     unit="px"
     method="auto"
     mode="F"
     chamfer_steps="1"
     flexible="false"
     use_knot_distance="true"
     apply_no_radius="true"
     apply_with_radius="true"
     only_selected="false"
     hide_knots="false" /><inkscape:path-effect
     effect="fillet_chamfer"
     id="path-effect8"
     is_visible="true"
     lpeversion="1"
     nodesatellites_param="F,0,0,1,0,0,0,1 @ F,0,0,1,0,0,0,1 @ F,0,0,1,0,0,0,1 @ F,0,0,1,0,2.0252866,0,1 @ F,0,0,1,0,1.9706049,0,1 @ F,0,0,1,0,0,0,1 @ F,0,0,1,0,0,0,1"
     radius="0"
     unit="px"
     method="auto"
     mode="F"
     chamfer_steps="1"
     flexible="false"
     use_knot_distance="true"
     apply_no_radius="true"
     apply_with_radius="true"
     only_selected="false"
     hide_knots="false" /><inkscape:path-effect
     effect="fillet_chamfer"
     id="path-effect5"
     is_visible="true"
     lpeversion="1"
     nodesatellites_param="F,0,0,1,0,1,0,1 @ F,0,0,1,0,0.98532692,0,1 @ F,0,0,1,0,1,0,1 @ F,0,0,1,0,0.9736372,0,1"
     radius="0"
     unit="px"
     method="auto"
     mode="F"
     chamfer_steps="1"
     flexible="false"
     use_knot_distance="true"
     apply_no_radius="true"
     apply_with_radius="true"
     only_selected="false"
     hide_knots="false" /><inkscape:path-effect
     effect="fillet_chamfer"
     id="path-effect4"
     is_visible="true"
     lpeversion="1"
     nodesatellites_param="F,0,0,1,0,1,0,1 @ F,0,0,1,0,0.99227788,0,1 @ F,0,0,1,0,1,0,1 @ F,0,0,1,0,1,0,1"
     radius="0"
     unit="px"
     method="auto"
     mode="F"
     chamfer_steps="1"
     flexible="false"
     use_knot_distance="true"
     apply_no_radius="true"
     apply_with_radius="true"
     only_selected="false"
     hide_knots="false" /><inkscape:path-effect
     effect="fillet_chamfer"
     id="path-effect3"
     is_visible="true"
     lpeversion="1"
     nodesatellites_param="F,0,0,1,0,0,0,1 @ F,0,0,1,0,0,0,1 @ F,0,0,1,0,0,0,1 @ F,0,0,1,0,0,0,1"
     radius="0"
     unit="px"
     method="auto"
     mode="F"
     chamfer_steps="1"
     flexible="false"
     use_knot_distance="true"
     apply_no_radius="true"
     apply_with_radius="true"
     only_selected="false"
     hide_knots="false" /><inkscape:path-effect
     effect="fillet_chamfer"
     id="path-effect2"
     is_visible="true"
     lpeversion="1"
     nodesatellites_param="F,0,0,1,0,0,0,1 @ F,0,0,1,0,0,0,1 @ F,0,0,1,0,0,0,1 @ F,0,0,1,0,2.0252866,0,1 @ F,0,0,1,0,1.9706049,0,1 @ F,0,0,1,0,0,0,1 @ F,0,0,1,0,0,0,1"
     radius="0"
     unit="px"
     method="auto"
     mode="F"
     chamfer_steps="1"
     flexible="false"
     use_knot_distance="true"
     apply_no_radius="true"
     apply_with_radius="true"
     only_selected="false"
     hide_knots="false" /></defs><sodipodi:namedview
   id="namedview1586"
   pagecolor="#ffffff"
   bordercolor="#000000"
   borderopacity="0.25"
   inkscape:showpageshadow="2"
   inkscape:pageopacity="0.0"
   inkscape:pagecheckerboard="0"
   inkscape:deskcolor="#d1d1d1"
   showgrid="true"
   inkscape:zoom="16"
   inkscape:cx="14.65625"
   inkscape:cy="19"
   inkscape:window-width="1920"
   inkscape:window-height="1008"
   inkscape:window-x="0"
   inkscape:window-y="0"
   inkscape:window-maximized="1"
   inkscape:current-layer="svg1584"
   showguides="false"><inkscape:grid
     type="xygrid"
     id="grid2657"
     empspacing="2"
     spacingx="0.125"
     spacingy="0.125"
     originx="0"
     originy="0"
     units="px"
     visible="true"
     dotted="false"
     enabled="true" /><inkscape:grid
     id="grid1"
     units="px"
     originx="0"
     originy="0"
     spacingx="0.5"
     spacingy="0.5"
     empcolor="#06e500"
     empopacity="0.30196078"
     color="#10e500"
     opacity="0.14901961"
     empspacing="2"
     dotted="false"
     gridanglex="30"
     gridanglez="30"
     visible="true"
     enabled="true" /></sodipodi:namedview>


    <g
   id="g1"
   style="clip-rule:evenodd;fill-rule:evenodd;stroke-linecap:round;stroke-miterlimit:1.5"
   transform="translate(-35.5)"><rect
     style="clip-rule:evenodd;fill:#777777;fill-opacity:1;fill-rule:evenodd;stroke:#000000;stroke-width:4;stroke-linecap:butt;stroke-linejoin:miter;stroke-miterlimit:1.5;stroke-dasharray:none;stroke-opacity:1;paint-order:markers stroke fill"
     id="rect4044-3-3"
     width="24"
     height="2"
     x="39.5"
     y="28"
     ry="0"
     rx="0"
     inkscape:label="ground" /><path
     id="path14"
     style="fill:none;fill-opacity:1;fill-rule:evenodd;stroke:#000000;stroke-width:4;stroke-linecap:round;stroke-linejoin:round;stroke-miterlimit:10;stroke-opacity:1;paint-order:markers stroke fill"
     d="m 51.5,5 c -1.999998,0 -4.000001,5e-7 -5,0.5 -0.999999,0.4999995 -2.5,3.000001 -3,4 -0.5,4.499996 -0.5,10.000004 0,14.5 0.25,0.5 1.5,1.75 2,2 h 6 l 6.000001,-5e-6 c 0.5,-0.25 1.75,-1.5 2,-2 0.5,-4.499996 0.5,-10.000004 0,-14.4999999 -0.5,-0.999999 -2.000001,-3.5000005 -3,-4 C 55.500002,4.9999956 53.499998,5 51.5,5 Z"
     sodipodi:nodetypes="sscccccccss"
     inkscape:label="outline" /><path
     d="m 57.5,24.5 h -2 v 3 c 0,0.133 0.053,0.26 0.146,0.354 C 55.74,27.947 55.867,28 56,28 h 1 c 0.133,0 0.26,-0.053 0.354,-0.146 C 57.447,27.76 57.5,27.633 57.5,27.5 Z"
     style="clip-rule:evenodd;display:inline;fill:#262626;fill-rule:evenodd;stroke-linecap:round;stroke-miterlimit:1.5"
     id="path1574-7-6"
     sodipodi:nodetypes="ccscsscsc"
     inkscape:label="right wheel" /><path
     d="m 47.5,24.5 h -2 l 0.01718,3 c 7.61e-4,0.132998 0.053,0.26 0.146,0.354 0.094,0.093 0.221,0.146 0.354,0.146 h 1 c 0.133,0 0.26,-0.053 0.354,-0.146 0.093,-0.094 0.146,-0.221 0.146,-0.354 z"
     style="clip-rule:evenodd;display:inline;fill:#262626;fill-rule:evenodd;stroke-linecap:round;stroke-miterlimit:1.5"
     id="path1570-6-7"
     sodipodi:nodetypes="ccscsscsc"
     inkscape:label="left wheel" /><path
     id="path2"
     style="fill:#ca1818;fill-opacity:1;fill-rule:evenodd;stroke-width:4;stroke-linecap:round;stroke-linejoin:round;stroke-miterlimit:10;paint-order:markers stroke fill"
     d="m 51.5,5 c -1.999996,0 -4.000002,1e-6 -5,0.5 -0.999998,0.499999 -2.5,3.000002 -3,4 -0.5,4.499992 -0.5,10.000008 0,14.5 h 16 C 60,19.500008 60,13.999992 59.5,9.5 59,8.500002 57.499998,5.999999 56.5,5.5 55.500002,5.000001 53.499996,5 51.5,5 Z"
     inkscape:label="body"
     sodipodi:nodetypes="ssccccss" /><path
     id="path9"
     style="display:inline;fill:#161616;fill-opacity:1;fill-rule:evenodd;stroke-width:4;stroke-linecap:round;stroke-linejoin:round;stroke-miterlimit:10;paint-order:markers stroke fill"
     d="m 43.5,24 c 0.25,0.5 1.5,1.75 2,2 h 6 6 c 0.5,-0.25 1.75,-1.5 2,-2 z"
     inkscape:label="pan"
     sodipodi:nodetypes="cccccc" /><path
     id="path15"
     style="display:inline;fill:#1a1a1a;fill-opacity:1;fill-rule:evenodd;stroke:none;stroke-width:4;stroke-linecap:round;stroke-linejoin:round;stroke-miterlimit:10;stroke-opacity:1;paint-order:markers stroke fill"
     d="m 51.5,6.5 c -1.499999,0 -2.500001,3e-7 -4,0.25 C 46.000001,6.9999997 46,7.7500007 46,8.5 c 0,1.999998 0.5,3.500001 1,5 0.999999,-0.499999 1.000003,-0.5 4.5,-0.5 3.499997,0 3.500001,10e-7 4.5,0.5 0.5,-1.499999 1,-3.000002 1,-5 0,-0.7499993 -10e-7,-1.5000003 -1.5,-1.75 C 54.000001,6.5000003 52.999999,6.5 51.5,6.5 Z"
     inkscape:label="windshield"
     sodipodi:nodetypes="ssscscsss" /><path
     id="path16"
     style="display:inline;opacity:1;fill:#d8d8d8;fill-opacity:1;fill-rule:evenodd;stroke:none;stroke-width:4;stroke-linecap:round;stroke-linejoin:round;stroke-miterlimit:10;stroke-opacity:1;paint-order:markers stroke fill"
     inkscape:label="stripe"
     d="M 43.5 9.5 C 43.184925 12.335671 43.068376 15.567861 43.150391 18.697266 L 43.5 18 C 43.625 17.75 43.91406 17.75 44 18 C 44.125 18.5 44.500002 19.875002 45.5 20.5 C 46.999998 21.499998 49.000005 22 51.5 22 C 53.999995 22 56.000002 21.499998 57.5 20.5 C 58.499998 19.875002 58.875 18.5 59 18 C 59.08594 17.75 59.375 17.75 59.5 18 L 59.849609 18.697266 C 59.931624 15.567861 59.815075 12.335671 59.5 9.5 C 59 12.999993 58.499998 15.750004 57.5 18 C 56.500002 20.249996 53.999995 20.5 51.5 20.5 C 49.000005 20.5 46.499998 20.249996 45.5 18 C 44.500002 15.750004 44 12.999993 43.5 9.5 z " /><ellipse
     style="opacity:1;fill:#ffffff;fill-opacity:1;fill-rule:evenodd;stroke:none;stroke-width:4;stroke-linecap:round;stroke-linejoin:round;stroke-miterlimit:10;stroke-opacity:1;paint-order:markers stroke fill"
     id="path17"
     cx="51.5"
     cy="15"
     rx="1"
     ry="0.5"
     inkscape:label="center light" /><circle
     style="opacity:1;fill:#ffffff;fill-opacity:1;fill-rule:evenodd;stroke:none;stroke-width:4;stroke-linecap:round;stroke-linejoin:round;stroke-miterlimit:10;stroke-opacity:1;paint-order:markers stroke fill"
     id="path18"
     cx="46.875"
     cy="17.75"
     r="0.5"
     inkscape:label="outer left light" /><circle
     style="opacity:1;fill:#ffffff;fill-opacity:1;fill-rule:evenodd;stroke:none;stroke-width:4;stroke-linecap:round;stroke-linejoin:round;stroke-miterlimit:10;stroke-opacity:1;paint-order:markers stroke fill"
     id="circle18"
     cx="48.75"
     cy="18.5"
     r="0.5"
     inkscape:label="inner left light" /><circle
     style="opacity:1;fill:#ffffff;fill-opacity:1;fill-rule:evenodd;stroke:none;stroke-width:4;stroke-linecap:round;stroke-linejoin:round;stroke-miterlimit:10;stroke-opacity:1;paint-order:markers stroke fill"
     id="circle19"
     cx="-56.125"
     cy="17.75"
     r="0.5"
     transform="scale(-1,1)"
     inkscape:label="outer right light" /><circle
     style="opacity:1;fill:#ffffff;fill-opacity:1;fill-rule:evenodd;stroke:none;stroke-width:4;stroke-linecap:round;stroke-linejoin:round;stroke-miterlimit:10;stroke-opacity:1;paint-order:markers stroke fill"
     id="circle20"
     cx="-54.25"
     cy="18.5"
     r="0.5"
     transform="scale(-1,1)"
     inkscape:label="inner right light" /></g>
</svg>
