<?xml version="1.0" encoding="UTF-8" standalone="no"?>
<svg
   width="32"
   height="32"
   viewBox="0 0 32 32"
   version="1.1"
   xml:space="preserve"
   style="clip-rule:evenodd;fill-rule:evenodd;stroke-linecap:round;stroke-miterlimit:1.5"
   id="svg1584"
   sodipodi:docname="frecciarossa_etr1000.svg"
   inkscape:export-filename="../../../../../home/adryd/Documents/gobilevel.png"
   inkscape:export-xdpi="3072"
   inkscape:export-ydpi="3072"
   inkscape:version="1.3.2 (091e20ef0f, 2023-11-25, custom)"
   xmlns:inkscape="http://www.inkscape.org/namespaces/inkscape"
   xmlns:sodipodi="http://sodipodi.sourceforge.net/DTD/sodipodi-0.dtd"
   xmlns="http://www.w3.org/2000/svg"
   xmlns:svg="http://www.w3.org/2000/svg"><defs
   id="defs1588"><inkscape:path-effect
     effect="fillet_chamfer"
     id="path-effect13"
     is_visible="true"
     lpeversion="1"
     nodesatellites_param="F,0,0,1,0,0,0,1 @ F,0,0,1,0,1.6325398,0,1 @ F,0,0,1,0,1.5808956,0,1 @ F,0,0,1,0,0,0,1 @ F,0,0,1,0,0,0,1 @ F,0,0,1,0,0,0,1"
     radius="0"
     unit="px"
     method="auto"
     mode="F"
     chamfer_steps="1"
     flexible="false"
     use_knot_distance="true"
     apply_no_radius="true"
     apply_with_radius="true"
     only_selected="false"
     hide_knots="false" /><inkscape:path-effect
     effect="fillet_chamfer"
     id="path-effect12"
     is_visible="true"
     lpeversion="1"
     nodesatellites_param="F,0,0,1,0,0,0,1 @ F,0,0,1,0,0,0,1 @ F,0,0,1,0,0,0,1 @ F,0,0,1,0,2.0252866,0,1 @ F,0,0,1,0,1.9706049,0,1 @ F,0,0,1,0,0,0,1 @ F,0,0,1,0,0,0,1"
     radius="0"
     unit="px"
     method="auto"
     mode="F"
     chamfer_steps="1"
     flexible="false"
     use_knot_distance="true"
     apply_no_radius="true"
     apply_with_radius="true"
     only_selected="false"
     hide_knots="false" /><inkscape:path-effect
     effect="fillet_chamfer"
     id="path-effect10"
     is_visible="true"
     lpeversion="1"
     nodesatellites_param="F,0,0,1,0,0,0,1 @ F,0,0,1,0,0,0,1 @ F,0,0,1,0,0,0,1 @ F,0,0,1,0,2.0252866,0,1 @ F,0,0,1,0,1.9706049,0,1 @ F,0,0,1,0,0,0,1 @ F,0,0,1,0,0,0,1"
     radius="0"
     unit="px"
     method="auto"
     mode="F"
     chamfer_steps="1"
     flexible="false"
     use_knot_distance="true"
     apply_no_radius="true"
     apply_with_radius="true"
     only_selected="false"
     hide_knots="false" /><inkscape:path-effect
     effect="fillet_chamfer"
     id="path-effect8"
     is_visible="true"
     lpeversion="1"
     nodesatellites_param="F,0,0,1,0,0,0,1 @ F,0,0,1,0,0,0,1 @ F,0,0,1,0,0,0,1 @ F,0,0,1,0,2.0252866,0,1 @ F,0,0,1,0,1.9706049,0,1 @ F,0,0,1,0,0,0,1 @ F,0,0,1,0,0,0,1"
     radius="0"
     unit="px"
     method="auto"
     mode="F"
     chamfer_steps="1"
     flexible="false"
     use_knot_distance="true"
     apply_no_radius="true"
     apply_with_radius="true"
     only_selected="false"
     hide_knots="false" /><inkscape:path-effect
     effect="fillet_chamfer"
     id="path-effect5"
     is_visible="true"
     lpeversion="1"
     nodesatellites_param="F,0,0,1,0,1,0,1 @ F,0,0,1,0,0.98532692,0,1 @ F,0,0,1,0,1,0,1 @ F,0,0,1,0,0.9736372,0,1"
     radius="0"
     unit="px"
     method="auto"
     mode="F"
     chamfer_steps="1"
     flexible="false"
     use_knot_distance="true"
     apply_no_radius="true"
     apply_with_radius="true"
     only_selected="false"
     hide_knots="false" /><inkscape:path-effect
     effect="fillet_chamfer"
     id="path-effect4"
     is_visible="true"
     lpeversion="1"
     nodesatellites_param="F,0,0,1,0,1,0,1 @ F,0,0,1,0,0.99227788,0,1 @ F,0,0,1,0,1,0,1 @ F,0,0,1,0,1,0,1"
     radius="0"
     unit="px"
     method="auto"
     mode="F"
     chamfer_steps="1"
     flexible="false"
     use_knot_distance="true"
     apply_no_radius="true"
     apply_with_radius="true"
     only_selected="false"
     hide_knots="false" /><inkscape:path-effect
     effect="fillet_chamfer"
     id="path-effect3"
     is_visible="true"
     lpeversion="1"
     nodesatellites_param="F,0,0,1,0,0,0,1 @ F,0,0,1,0,0,0,1 @ F,0,0,1,0,0,0,1 @ F,0,0,1,0,0,0,1"
     radius="0"
     unit="px"
     method="auto"
     mode="F"
     chamfer_steps="1"
     flexible="false"
     use_knot_distance="true"
     apply_no_radius="true"
     apply_with_radius="true"
     only_selected="false"
     hide_knots="false" /><inkscape:path-effect
     effect="fillet_chamfer"
     id="path-effect2"
     is_visible="true"
     lpeversion="1"
     nodesatellites_param="F,0,0,1,0,0,0,1 @ F,0,0,1,0,0,0,1 @ F,0,0,1,0,0,0,1 @ F,0,0,1,0,2.0252866,0,1 @ F,0,0,1,0,1.9706049,0,1 @ F,0,0,1,0,0,0,1 @ F,0,0,1,0,0,0,1"
     radius="0"
     unit="px"
     method="auto"
     mode="F"
     chamfer_steps="1"
     flexible="false"
     use_knot_distance="true"
     apply_no_radius="true"
     apply_with_radius="true"
     only_selected="false"
     hide_knots="false" /></defs><sodipodi:namedview
   id="namedview1586"
   pagecolor="#ffffff"
   bordercolor="#000000"
   borderopacity="0.25"
   inkscape:showpageshadow="2"
   inkscape:pageopacity="0.0"
   inkscape:pagecheckerboard="0"
   inkscape:deskcolor="#d1d1d1"
   showgrid="true"
   inkscape:zoom="16"
   inkscape:cx="19.3125"
   inkscape:cy="12.25"
   inkscape:window-width="1920"
   inkscape:window-height="1008"
   inkscape:window-x="0"
   inkscape:window-y="0"
   inkscape:window-maximized="1"
   inkscape:current-layer="svg1584"
   showguides="false"><inkscape:grid
     type="xygrid"
     id="grid2657"
     empspacing="2"
     spacingx="0.25"
     spacingy="0.25"
     originx="0"
     originy="0"
     units="px"
     visible="false" /><inkscape:grid
     id="grid1"
     units="px"
     originx="0"
     originy="0"
     spacingx="0.5"
     spacingy="0.5"
     empcolor="#06e500"
     empopacity="0.30196078"
     color="#10e500"
     opacity="0.14901961"
     empspacing="2"
     dotted="false"
     gridanglex="30"
     gridanglez="30"
     visible="false" /></sodipodi:namedview>


    <g
   id="g1582">
        <clipPath
   id="_clip1">
            <rect
   x="0"
   y="0"
   width="32"
   height="32"
   id="rect1513" />
        </clipPath>

    <rect
   style="clip-rule:evenodd;fill:#777777;fill-opacity:1;fill-rule:evenodd;stroke:#000000;stroke-width:4;stroke-linecap:butt;stroke-linejoin:miter;stroke-miterlimit:1.5;stroke-dasharray:none;stroke-opacity:1;paint-order:markers stroke fill"
   id="rect4044-3"
   width="24"
   height="2"
   x="4"
   y="28"
   ry="0"
   rx="0"
   inkscape:label="ground" /><path
   id="path1"
   style="display:inline;fill:none;fill-opacity:1;fill-rule:evenodd;stroke:#000000;stroke-width:4;stroke-linecap:round;stroke-linejoin:round;stroke-miterlimit:10;stroke-dasharray:none;stroke-opacity:1;paint-order:markers stroke fill"
   d="m 16,2 c -2.499997,0 -4.750001,0.5000015 -5.75,2 -0.999999,1.4999985 -1.0000005,2.000002 -1.5,4 -0.4999995,1.999998 -1,7.000003 -1,10 0,0.749999 0.25,1.250001 0.25,2 0,0.749999 -0.25,1.000001 -0.25,2 0,1.999998 4.250004,4 8.25,4 3.999996,0 8.25,-2.000002 8.25,-4 0,-0.999999 -0.25,-1.250001 -0.25,-2 0,-0.749999 0.25,-1.250001 0.25,-2 0,-2.999997 -0.5,-8.000002 -1,-10 C 22.75,6.000002 22.749999,5.4999985 21.75,4 20.750001,2.5000015 18.499997,2 16,2 Z"
   inkscape:label="body outline"
   sodipodi:nodetypes="sssssssssssss" /><path
   d="m 22,24.5 h -2 v 3 c 0,0.133 0.053,0.26 0.146,0.354 C 20.24,27.947 20.367,28 20.5,28 h 1 c 0.133,0 0.26,-0.053 0.354,-0.146 C 21.947,27.76 22,27.633 22,27.5 Z"
   style="clip-rule:evenodd;display:inline;fill:#262626;fill-rule:evenodd;stroke-linecap:round;stroke-miterlimit:1.5"
   id="path1574-7"
   sodipodi:nodetypes="ccscsscsc"
   inkscape:label="right wheel" /><path
   d="m 12,24.5 h -2 l 0.01718,3 c 7.61e-4,0.132998 0.053,0.26 0.146,0.354 0.094,0.093 0.221,0.146 0.354,0.146 h 1 c 0.133,0 0.26,-0.053 0.354,-0.146 0.093,-0.094 0.146,-0.221 0.146,-0.354 z"
   style="clip-rule:evenodd;display:inline;fill:#262626;fill-rule:evenodd;stroke-linecap:round;stroke-miterlimit:1.5"
   id="path1570-6"
   sodipodi:nodetypes="ccscsscsc"
   inkscape:label="left wheel" /><path
   id="path1-3"
   style="clip-rule:evenodd;display:inline;fill:#ca1818;fill-opacity:1;fill-rule:evenodd;stroke:none;stroke-width:4;stroke-linecap:round;stroke-linejoin:round;stroke-miterlimit:10;stroke-dasharray:none;stroke-opacity:1;paint-order:markers stroke fill"
   inkscape:label="body"
   d="m 16,2 c -2.499995,0 -4.750002,0.500003 -5.75,2 -0.999998,1.499997 -1.000001,2.000004 -1.5,4 -0.499999,1.999996 -1,7.000006 -1,10 0,0.749998 0.25,1.250002 0.25,2 0,0.749998 -0.25,1.000002 -0.25,2 0,0.336572 0.122521,0.67296 0.3417969,1 H 23.908203 C 24.127479,22.67296 24.25,22.336572 24.25,22 24.25,21.000002 24,20.749998 24,20 c 0,-0.749998 0.25,-1.250002 0.25,-2 0,-2.999994 -0.5,-8.000004 -1,-10 C 22.75,6.000004 22.749998,5.499997 21.75,4 20.750002,2.500003 18.499995,2 16,2 Z"
   sodipodi:nodetypes="ssssssccssssss" /><path
   id="path3"
   style="display:inline;fill:#bac8ca;fill-opacity:1;fill-rule:evenodd;stroke:none;stroke-width:4;stroke-linecap:round;stroke-linejoin:round;stroke-miterlimit:10;stroke-dasharray:none;stroke-opacity:1;paint-order:markers stroke fill"
   d="M 8.0917969,23 C 9.1755135,24.616316 12.673152,26 16,26 c 3.326848,0 6.824486,-1.383684 7.908203,-3 z"
   inkscape:label="pan" /><path
   id="path4"
   style="display:inline;fill:#bac8ca;fill-opacity:1;fill-rule:evenodd;stroke:none;stroke-width:4;stroke-linecap:round;stroke-linejoin:round;stroke-miterlimit:10;stroke-dasharray:none;stroke-opacity:1;paint-order:markers stroke fill"
   d="M 23.158203,7.6445312 C 23.059614,7.8705639 23,8.1548139 23,8.5 c 0,2.839776 0.499998,7.500002 -1,9 -1.499998,1.499998 -2.500006,2.5 -5.5,2.5 h -1 C 12.500006,20 11.499998,18.999998 10,17.5 8.500003,16.000002 9,11.339776 9,8.5 9,8.1558365 8.9398629,7.8721994 8.8417969,7.6464844 8.8093107,7.7753767 8.7874711,7.8501154 8.75,8 8.5414329,8.8342684 8.3363388,10.199476 8.1640625,11.714844 8.2115946,12.987821 8.25,14.411678 8.25,16 8.25,16.401272 8.0857112,16.959287 7.7636719,17.294922 7.7585512,17.532941 7.75,17.781301 7.75,18 c 0,0.245196 0.030437,0.460695 0.066406,0.669922 C 8.0568949,18.226817 8.333585,18 8.5,18 c 0.2499996,0 0.500002,2e-6 1.5,1 1.749996,1.749996 3.000005,2 5.5,2 h 1 c 2.499995,0 3.750004,-0.250004 5.5,-2 0.999998,-0.999998 1.25,-1 1.5,-1 0.166415,0 0.443105,0.226817 0.683594,0.669922 C 24.219564,18.460695 24.25,18.245196 24.25,18 24.25,17.781301 24.2414,17.532941 24.23633,17.294922 23.914289,16.959287 23.75,16.401272 23.75,16 c 0,-1.588322 0.03841,-3.012179 0.08594,-4.285156 C 23.663661,10.199476 23.458567,8.8342684 23.25,8 23.212335,7.8493394 23.190835,7.7739894 23.158203,7.6445312 Z"
   inkscape:label="stripe" /><path
   id="path10"
   style="fill:#1a1a1a;fill-opacity:1;fill-rule:evenodd;stroke:none;stroke-width:4;stroke-linecap:round;stroke-linejoin:round;stroke-miterlimit:10;stroke-dasharray:none;stroke-opacity:1;paint-order:markers stroke fill"
   d="M 16,5 C 13.500003,5 10.999999,5.5000007 10.25,6.25 9.7500005,6.7499995 9.5,7.500001 9.5,8.5 c 0,0.999999 1.000001,2.500001 1.5,3 0.499999,0.499999 1.000001,1 1.5,1 h 7 c 0.5,0 1,-0.500001 1.5,-1 0.5,-0.499999 1.5,-2.000001 1.5,-3 C 22.5,7.500001 22.25,6.7499995 21.75,6.25 21.000001,5.5000007 18.499997,5 16,5 Z"
   sodipodi:nodetypes="ssssssssss"
   inkscape:label="windshield" /><circle
   style="fill:#f9f9f9;fill-opacity:1;fill-rule:evenodd;stroke:none;stroke-width:4;stroke-linecap:round;stroke-linejoin:round;stroke-miterlimit:10;stroke-dasharray:none;stroke-opacity:1;paint-order:markers stroke fill"
   id="path5"
   cx="16"
   cy="13"
   r="1"
   inkscape:label="center light" /><path
   style="fill:#464646;fill-opacity:1;fill-rule:evenodd;stroke:none;stroke-width:4;stroke-linecap:round;stroke-linejoin:round;stroke-miterlimit:10;stroke-dasharray:none;stroke-opacity:1;paint-order:markers stroke fill"
   d="m 20,17 c -0.125,0.5 0.5,0.75 0.75,0.5 C 21.5,16.75 22,16 22.5,15 c 0.25,-0.5 0,-0.75 -0.5,-1 -0.5,-0.25 -0.75,0 -1,0.5 -0.5,1 -0.75,1.5 -1,2.5 z"
   id="path11"
   sodipodi:nodetypes="cccccc"
   inkscape:label="right light housing" /><circle
   style="fill:#f9f9f9;fill-opacity:1;fill-rule:evenodd;stroke:none;stroke-width:4;stroke-linecap:round;stroke-linejoin:round;stroke-miterlimit:10;stroke-dasharray:none;stroke-opacity:1;paint-order:markers stroke fill"
   id="path6"
   cx="21.75"
   cy="14.75"
   r="0.75"
   inkscape:label="right light" /><path
   style="fill:#464646;fill-opacity:1;fill-rule:evenodd;stroke:none;stroke-width:4;stroke-linecap:round;stroke-linejoin:round;stroke-miterlimit:10;stroke-dasharray:none;stroke-opacity:1;paint-order:markers stroke fill"
   d="m 12,17 c 0.125,0.5 -0.5,0.75 -0.75,0.5 C 10.5,16.75 10,16 9.5,15 c -0.25,-0.5 0,-0.75 0.5,-1 0.5,-0.25 0.75,0 1,0.5 0.5,1 0.75,1.5 1,2.5 z"
   id="path12"
   sodipodi:nodetypes="cccccc"
   inkscape:label="left light housing" /><circle
   style="fill:#f9f9f9;fill-opacity:1;fill-rule:evenodd;stroke:none;stroke-width:4;stroke-linecap:round;stroke-linejoin:round;stroke-miterlimit:10;stroke-dasharray:none;stroke-opacity:1;paint-order:markers stroke fill"
   id="path7"
   cx="10.25"
   cy="14.75"
   r="0.75"
   inkscape:label="left light" /></g>
</svg>
