<?xml version="1.0" encoding="UTF-8" standalone="no"?>
<svg
   width="32"
   height="32"
   viewBox="0 0 32 32"
   version="1.1"
   xml:space="preserve"
   style="clip-rule:evenodd;fill-rule:evenodd;stroke-linecap:round;stroke-miterlimit:1.5"
   id="svg1584"
   sodipodi:docname="mbta_orange_line.svg"
   inkscape:export-filename="../../../../../home/adryd/Documents/orange_line.png"
   inkscape:export-xdpi="3072"
   inkscape:export-ydpi="3072"
   inkscape:version="1.3.2 (091e20ef0f, 2023-11-25, custom)"
   xmlns:inkscape="http://www.inkscape.org/namespaces/inkscape"
   xmlns:sodipodi="http://sodipodi.sourceforge.net/DTD/sodipodi-0.dtd"
   xmlns="http://www.w3.org/2000/svg"
   xmlns:svg="http://www.w3.org/2000/svg"><defs
   id="defs1588"><inkscape:path-effect
     effect="fillet_chamfer"
     id="path-effect18"
     is_visible="true"
     lpeversion="1"
     nodesatellites_param="F,0,0,1,0,0.78688048,0,1 @ F,0,0,1,0,0,0,1 @ F,0,0,1,0,0,0,1 @ F,0,0,1,0,0,0,1 @ F,0,0,1,0,0.81907519,0,1 @ F,0,0,1,0,0.87130444,0,1 @ F,0,0,1,0,0,0,1 @ F,0,0,1,0,0,0,1 @ F,0,0,1,0,0.8091323,0,1"
     radius="0"
     unit="px"
     method="auto"
     mode="F"
     chamfer_steps="1"
     flexible="false"
     use_knot_distance="true"
     apply_no_radius="true"
     apply_with_radius="true"
     only_selected="false"
     hide_knots="false" /><inkscape:path-effect
     effect="fillet_chamfer"
     id="path-effect16"
     is_visible="true"
     lpeversion="1"
     nodesatellites_param="F,0,0,1,0,0,0,1 @ F,0,0,1,0,0,0,1 @ F,0,0,1,0,1,0,1 @ F,0,0,1,0,1,0,1 @ F,0,0,1,0,0,0,1 @ F,0,0,1,0,0,0,1"
     radius="0"
     unit="px"
     method="auto"
     mode="F"
     chamfer_steps="1"
     flexible="false"
     use_knot_distance="true"
     apply_no_radius="true"
     apply_with_radius="true"
     only_selected="false"
     hide_knots="false" /><inkscape:path-effect
     effect="fillet_chamfer"
     id="path-effect14"
     is_visible="true"
     lpeversion="1"
     nodesatellites_param="F,0,0,1,0,0.78688048,0,1 @ F,0,0,1,0,0,0,1 @ F,0,0,1,0,0,0,1 @ F,0,0,1,0,0,0,1 @ F,0,0,1,0,0.81907519,0,1 @ F,0,0,1,0,0.87130444,0,1 @ F,0,0,1,0,0,0,1 @ F,0,0,1,0,0,0,1 @ F,0,0,1,0,0.8091323,0,1"
     radius="0"
     unit="px"
     method="auto"
     mode="F"
     chamfer_steps="1"
     flexible="false"
     use_knot_distance="true"
     apply_no_radius="true"
     apply_with_radius="true"
     only_selected="false"
     hide_knots="false" /><inkscape:path-effect
     effect="fillet_chamfer"
     id="path-effect12"
     is_visible="true"
     lpeversion="1"
     nodesatellites_param="F,0,0,1,0,0.78688048,0,1 @ F,0,0,1,0,0,0,1 @ F,0,0,1,0,0,0,1 @ F,0,0,1,0,0,0,1 @ F,0,0,1,0,0.81907519,0,1 @ F,0,0,1,0,0.87130444,0,1 @ F,0,0,1,0,0,0,1 @ F,0,0,1,0,0,0,1 @ F,0,0,1,0,0.8091323,0,1"
     radius="0"
     unit="px"
     method="auto"
     mode="F"
     chamfer_steps="1"
     flexible="false"
     use_knot_distance="true"
     apply_no_radius="true"
     apply_with_radius="true"
     only_selected="false"
     hide_knots="false" /><inkscape:path-effect
     effect="fillet_chamfer"
     id="path-effect10"
     is_visible="true"
     lpeversion="1"
     nodesatellites_param="F,0,0,1,0,0.78688048,0,1 @ F,0,0,1,0,0,0,1 @ F,0,0,1,0,0,0,1 @ F,0,0,1,0,0,0,1 @ F,0,0,1,0,0.81907519,0,1 @ F,0,0,1,0,0,0,1 @ F,0,0,1,0,0,0,1 @ F,0,0,1,0,0,0,1 @ F,0,0,1,0,0,0,1"
     radius="0"
     unit="px"
     method="auto"
     mode="F"
     chamfer_steps="1"
     flexible="false"
     use_knot_distance="true"
     apply_no_radius="true"
     apply_with_radius="true"
     only_selected="false"
     hide_knots="false" /><inkscape:path-effect
     effect="fillet_chamfer"
     id="path-effect7"
     is_visible="true"
     lpeversion="1"
     nodesatellites_param="F,0,0,1,0,0.78688048,0,1 @ F,0,0,1,0,0,0,1 @ F,0,0,1,0,0,0,1 @ F,0,0,1,0,0,0,1 @ F,0,0,1,0,0.81907519,0,1 @ F,0,0,1,0,0,0,1 @ F,0,0,1,0,0,0,1 @ F,0,0,1,0,0,0,1 @ F,0,0,1,0,0,0,1"
     radius="0"
     unit="px"
     method="auto"
     mode="F"
     chamfer_steps="1"
     flexible="false"
     use_knot_distance="true"
     apply_no_radius="true"
     apply_with_radius="true"
     only_selected="false"
     hide_knots="false" /><inkscape:path-effect
     effect="fillet_chamfer"
     id="path-effect5"
     is_visible="true"
     lpeversion="1"
     nodesatellites_param="F,0,0,1,0,0.78688048,0,1 @ F,0,0,1,0,0,0,1 @ F,0,0,1,0,0,0,1 @ F,0,0,1,0,0,0,1 @ F,0,0,1,0,0.81907519,0,1 @ F,0,0,1,0,0.87130444,0,1 @ F,0,0,1,0,0,0,1 @ F,0,0,1,0,0,0,1 @ F,0,0,1,0,0.8091323,0,1"
     radius="0"
     unit="px"
     method="auto"
     mode="F"
     chamfer_steps="1"
     flexible="false"
     use_knot_distance="true"
     apply_no_radius="true"
     apply_with_radius="true"
     only_selected="false"
     hide_knots="false" /><inkscape:path-effect
     effect="fillet_chamfer"
     id="path-effect3"
     is_visible="true"
     lpeversion="1"
     nodesatellites_param="F,0,0,1,0,0,0,1 @ F,0,0,1,0,1,0,1 @ F,0,0,1,0,1,0,1 @ F,0,0,1,0,0,0,1"
     radius="0"
     unit="px"
     method="auto"
     mode="F"
     chamfer_steps="1"
     flexible="false"
     use_knot_distance="true"
     apply_no_radius="true"
     apply_with_radius="true"
     only_selected="false"
     hide_knots="false" /><inkscape:path-effect
     effect="fillet_chamfer"
     id="path-effect1"
     is_visible="true"
     lpeversion="1"
     nodesatellites_param="F,0,0,1,0,0,0,1 @ F,0,0,1,0,0,0,1 @ F,0,0,1,0,1,0,1 @ F,0,0,1,0,1,0,1 @ F,0,0,1,0,0,0,1 @ F,0,0,1,0,0,0,1"
     radius="0"
     unit="px"
     method="auto"
     mode="F"
     chamfer_steps="1"
     flexible="false"
     use_knot_distance="true"
     apply_no_radius="true"
     apply_with_radius="true"
     only_selected="false"
     hide_knots="false" /><inkscape:path-effect
     effect="fillet_chamfer"
     id="path-effect5-7"
     is_visible="true"
     lpeversion="1"
     nodesatellites_param="F,0,0,1,0,0.78688048,0,1 @ F,0,0,1,0,0,0,1 @ F,0,0,1,0,0,0,1 @ F,0,0,1,0,0,0,1 @ F,0,0,1,0,0.81907519,0,1 @ F,0,0,1,0,0.87130444,0,1 @ F,0,0,1,0,0,0,1 @ F,0,0,1,0,0,0,1 @ F,0,0,1,0,0.8091323,0,1"
     radius="0"
     unit="px"
     method="auto"
     mode="F"
     chamfer_steps="1"
     flexible="false"
     use_knot_distance="true"
     apply_no_radius="true"
     apply_with_radius="true"
     only_selected="false"
     hide_knots="false" /></defs><sodipodi:namedview
   id="namedview1586"
   pagecolor="#ffffff"
   bordercolor="#000000"
   borderopacity="0.25"
   inkscape:showpageshadow="2"
   inkscape:pageopacity="0.0"
   inkscape:pagecheckerboard="0"
   inkscape:deskcolor="#d1d1d1"
   showgrid="true"
   inkscape:zoom="19.83008"
   inkscape:cx="15.809316"
   inkscape:cy="12.001969"
   inkscape:window-width="1920"
   inkscape:window-height="1012"
   inkscape:window-x="0"
   inkscape:window-y="32"
   inkscape:window-maximized="1"
   inkscape:current-layer="g1582"><inkscape:grid
     type="xygrid"
     id="grid2657"
     originx="0"
     originy="0"
     spacingy="1"
     spacingx="1"
     units="px"
     visible="true" /></sodipodi:namedview>


    <g
   id="g1582">
        <clipPath
   id="_clip1">
            <rect
   x="0"
   y="0"
   width="32"
   height="32"
   id="rect1513" />
        </clipPath>
        
    <path
   d="M 24.434247,8.4543056 C 22.458527,6.8181019 18.80898,6 17,6 H 16 15 C 13.169946,6 10.08398,6.8372746 7.6574241,8.5118238 7.2852099,8.7686862 6.9545149,9.3638807 6.8984062,9.8127502 L 6.108072,16.135424 a 6.5062493,6.5062493 89.497457 0 0 0.015149,1.727123 L 8,31 h 16 l 1.885571,-13.199 a 6.0419943,6.0419943 90.502543 0 0 0.01407,-1.603884 L 25.097601,9.7808041 C 25.043697,9.3495779 24.768596,8.731198 24.434247,8.4543056 Z"
   style="clip-rule:evenodd;fill-rule:evenodd;stroke-linecap:round;stroke-miterlimit:1.5;display:inline;fill:#000000;fill-opacity:1;stroke:#000000;stroke-width:4;stroke-dasharray:none;stroke-opacity:1;paint-order:stroke fill markers"
   id="path1524-5"
   sodipodi:nodetypes="czszcccccc"
   transform="translate(-0.00206324,-1)"
   inkscape:path-effect="#path-effect5-7"
   inkscape:original-d="M 25,9 C 23.249802,7 19,6 17,6 H 16 15 C 13,6 9.5,7 7,9 l -1,8 2,14 h 16 l 2,-14 z" /><rect
   style="clip-rule:evenodd;display:none;fill:#d35f5f;fill-rule:evenodd;stroke:#000000;stroke-width:4;stroke-linecap:square;stroke-miterlimit:1.5;stroke-dasharray:none;stroke-opacity:1;paint-order:stroke fill markers"
   id="rect16"
   width="18"
   height="3"
   x="7"
   y="22" /><rect
   style="clip-rule:evenodd;display:inline;fill:#777777;fill-opacity:1;fill-rule:evenodd;stroke:#000000;stroke-width:4;stroke-linecap:butt;stroke-linejoin:miter;stroke-miterlimit:1.5;stroke-dasharray:none;stroke-opacity:1;paint-order:markers stroke fill"
   id="rect4044"
   width="24"
   height="2"
   x="4"
   y="28"
   ry="0"
   rx="0" /><path
   d="M 24.434247,8.4543056 C 22.458527,6.8181019 18.80898,6 17,6 H 16 15 C 13.169946,6 10.08398,6.8372746 7.6574241,8.5118238 7.2852099,8.7686862 6.9545149,9.3638807 6.8984062,9.8127502 L 6.108072,16.135424 a 6.5104107,6.5104107 89.502275 0 0 0.015004,1.727144 L 7,24.008419 l 18,-0.0091 0.885561,-6.19832 a 6.0416815,6.0416815 90.502933 0 0 0.01408,-1.603883 L 25.097601,9.7808041 C 25.043697,9.3495779 24.768596,8.731198 24.434247,8.4543056 Z"
   style="clip-rule:evenodd;display:inline;fill:#b6b6b6;fill-opacity:1;fill-rule:evenodd;stroke:#000000;stroke-width:4;stroke-linecap:round;stroke-miterlimit:1.5;stroke-dasharray:none;stroke-opacity:1;paint-order:stroke fill markers"
   id="path1524"
   sodipodi:nodetypes="czszcccccc"
   transform="translate(0,-1)"
   inkscape:path-effect="#path-effect5"
   inkscape:original-d="M 25,9 C 23.249802,7 19,6 17,6 H 16 15 C 13,6 9.5,7 7,9 l -1,8 1,7.008419 18,-0.0091 L 26,17 Z" /><path
   d="M 25.945312,16 H 6.0585937 a 6.5104107,6.5104107 0 0 0 0.064453,0.859375 L 7,23 h 18 l 0.892578,-6.248047 A 6.0416815,6.0416815 0 0 0 25.945312,16 Z"
   style="display:inline;fill:#f35e00;stroke-width:4;stroke-linecap:square;paint-order:stroke fill markers"
   id="path12" /><path
   d="M 25.140625,22 H 6.8554687 l 0.4277344,3 H 24.712891 Z"
   style="clip-rule:evenodd;fill-rule:evenodd;stroke-linecap:square;stroke-miterlimit:1.5;fill:#1a1a1a;stroke-width:4;paint-order:stroke fill markers"
   id="path18" /><path
   d="M 24.839844,8 H 7.2167969 C 7.1033957,8.1783213 7.0123725,8.3745427 6.9550781,8.5625 6.9484316,8.5845764 6.941207,8.607125 6.9355469,8.6289063 6.9190111,8.6918362 6.9058259,8.753393 6.8984375,8.8125 L 6.1074219,15.144531 A 6.5104107,6.5104107 0 0 0 6.0585937,16 H 25.945312 a 6.0416815,6.0416815 0 0 0 -0.0332,-0.703125 L 25.097656,8.78125 c -0.0068,-0.054147 -0.01777,-0.111022 -0.03125,-0.1699219 -0.0079,-0.03476 -0.01927,-0.07155 -0.0293,-0.1074218 C 24.990365,8.3382843 24.924113,8.1638533 24.839844,8 Z"
   style="display:inline;fill:#e0e0e0;stroke-width:6.4252;stroke-linecap:square;stroke-dasharray:6.4252, 38.5512;stroke-opacity:0.291272;paint-order:stroke markers fill"
   id="path14" /><path
   d="m 8,16.5 h 4 v 1 H 8 v 3 h 4 v 1 H 8 v 1 H 7 v -7 h 1 z"
   style="clip-rule:evenodd;fill:#888888;fill-rule:evenodd;stroke-linecap:round;stroke-miterlimit:1.5"
   id="path1538"
   sodipodi:nodetypes="ccccccccccccc" /><path
   d="M 25,15.500001 V 16 22.5 h -1 v -1 h -4 v -1 h 4 v -3 h -4 v -1 h 4 v -0.999999 z"
   style="clip-rule:evenodd;display:inline;fill:#888888;fill-rule:evenodd;stroke-linecap:round;stroke-miterlimit:1.5"
   id="path1542"
   sodipodi:nodetypes="cccccccccccccc" /><rect
   style="clip-rule:evenodd;fill:#c6c6c6;fill-opacity:1;fill-rule:evenodd;stroke:none;stroke-width:5.04326;stroke-linecap:square;stroke-miterlimit:1.5;stroke-dasharray:none;stroke-opacity:1;paint-order:stroke fill markers"
   id="rect8"
   width="6"
   height="8"
   x="13"
   y="8" /><path
   d="m 21,11 2.370601,7.59e-4 c 0.552,1.77e-4 0.931467,0.45227 1,1 L 24.870998,16 c 0.06828,0.545743 -0.445,0.997 -0.994,1 h -0.006 H 21 c -0.552,0 -1,-0.448 -1,-1 v -4 c 0,-0.552 0.448,-1.000177 1,-1 z"
   id="path1550"
   style="clip-rule:evenodd;fill-rule:evenodd;stroke-linecap:round;stroke-miterlimit:1.5"
   transform="translate(0,-2)"
   sodipodi:nodetypes="ssssccssss" /><path
   d="M 14.994,15 C 14.445,14.997 14,14.55 14,14 v -4 c 0,-0.552 0.448,-1 1,-1 h 2 c 0.552,0 1,0.448 1,1 v 4 c 0,0.55 -0.445,0.997 -0.994,1 H 17 15 Z"
   id="path1566"
   style="clip-rule:evenodd;fill-rule:evenodd;stroke-linecap:round;stroke-miterlimit:1.5" /><path
   d="m 12,24 h -2 v 2.5 c 0,0.133 0.053,0.26 0.146,0.354 C 10.24,26.947 10.367,27 10.5,27 h 1 c 0.133,0 0.26,-0.053 0.354,-0.146 C 11.947,26.76 12,26.633 12,26.5 Z"
   style="clip-rule:evenodd;fill:#262626;fill-rule:evenodd;stroke-linecap:round;stroke-miterlimit:1.5"
   id="path1570"
   transform="translate(-0.0263628,1)" /><path
   d="m 22,25 h -2 v 2.5 c 0,0.133 0.053,0.26 0.146,0.354 C 20.24,27.947 20.367,28 20.5,28 h 1 c 0.133,0 0.26,-0.053 0.354,-0.146 C 21.947,27.76 22,27.633 22,27.5 Z"
   style="clip-rule:evenodd;fill:#262626;fill-rule:evenodd;stroke-linecap:round;stroke-miterlimit:1.5"
   id="path1574" /><rect
   style="display:none;fill:#aa3535;fill-opacity:1;stroke-width:6.4252;stroke-linecap:square;stroke-dasharray:6.4252, 38.5512;stroke-opacity:0.291272;paint-order:stroke markers fill"
   id="rect2"
   width="6"
   height="6"
   x="13"
   y="16" /><rect
   style="fill:#1a1a1a;fill-opacity:1;stroke:none;stroke-width:9.2285;stroke-linecap:square;stroke-dasharray:9.2285, 55.371;stroke-opacity:1;paint-order:stroke markers fill"
   id="rect4"
   width="6"
   height="1.3428868"
   x="13"
   y="6"
   ry="0.52358174" /><circle
   style="fill:#d35f5f;fill-opacity:1;stroke:none;stroke-width:6.4252;stroke-linecap:square;stroke-dasharray:6.4252, 38.5512;stroke-opacity:1;paint-order:stroke markers fill"
   id="path4"
   cx="10.5"
   cy="7"
   r="0.5" /><circle
   style="clip-rule:evenodd;fill:#ececec;fill-opacity:1;fill-rule:evenodd;stroke:none;stroke-width:6.4252;stroke-linecap:square;stroke-miterlimit:1.5;stroke-dasharray:6.4252, 38.5512;stroke-opacity:1;paint-order:stroke markers fill"
   id="path4-3"
   cx="20"
   cy="6.5"
   r="0.5" /><circle
   style="clip-rule:evenodd;fill:#d35f5f;fill-opacity:1;fill-rule:evenodd;stroke:none;stroke-width:6.4252;stroke-linecap:square;stroke-miterlimit:1.5;stroke-dasharray:6.4252, 38.5512;stroke-opacity:1;paint-order:stroke markers fill"
   id="path4-3-6"
   cx="21.5"
   cy="7"
   r="0.5" /><rect
   style="fill:#888888;fill-opacity:1;stroke-width:3.91145;stroke-linecap:square;paint-order:stroke fill markers"
   id="rect5"
   width="1.0000004"
   height="2.9999993"
   x="11"
   y="17.5" /><rect
   style="fill:#888888;fill-opacity:1;stroke-width:4;stroke-linecap:square;paint-order:stroke fill markers"
   id="rect6"
   width="1"
   height="3"
   x="20.001858"
   y="17.5" /><circle
   style="fill:#f9f9f9;fill-opacity:1;stroke-width:3.99895;stroke-linecap:square;paint-order:stroke fill markers"
   id="path6"
   cx="22.5"
   cy="19"
   r="0.74980164" /><circle
   style="clip-rule:evenodd;fill:#f9f9f9;fill-opacity:1;fill-rule:evenodd;stroke-width:4.12035;stroke-linecap:square;stroke-miterlimit:1.5;paint-order:stroke fill markers"
   id="path6-5"
   cx="9.5"
   cy="19"
   r="0.7725637" /><path
   d="m 10.938563,9.0000001 -2.3706013,7.59e-4 c -0.552,1.77e-4 -0.931467,0.45227 -1,0.9999999 L 7.0675647,14 c -0.06828,0.545743 0.445,0.997 0.994,1 h 0.006 2.8709983 c 0.552,0 1,-0.448 1,-1 v -4 c 0,-0.5519999 -0.448,-1.0001769 -1,-0.9999999 z"
   id="path1550-3"
   style="clip-rule:evenodd;fill-rule:evenodd;stroke-linecap:round;stroke-miterlimit:1.5"
   sodipodi:nodetypes="ssssccssss" /><rect
   style="fill:#e35800;fill-opacity:1;stroke:none;stroke-width:4.38178;stroke-linecap:square;stroke-dasharray:none;stroke-opacity:1;paint-order:stroke fill markers"
   id="rect7"
   width="6"
   height="6"
   x="13"
   y="16"
   inkscape:export-filename="../../../../../home/adryd/Documents/orange_line.png"
   inkscape:export-xdpi="3072"
   inkscape:export-ydpi="3072" /></g>
</svg>
