<?xml version="1.0" encoding="UTF-8" standalone="no"?>
<svg
   width="32"
   height="32"
   viewBox="0 0 32 32"
   version="1.1"
   xml:space="preserve"
   style="clip-rule:evenodd;fill-rule:evenodd;stroke-linecap:round;stroke-miterlimit:1.5"
   id="svg1584"
   sodipodi:docname="mbta_redline.svg"
   inkscape:export-filename="../../../../../home/adryd/Documents/red_line.png"
   inkscape:export-xdpi="3072"
   inkscape:export-ydpi="3072"
   inkscape:version="1.3.2 (091e20ef0f, 2023-11-25, custom)"
   xmlns:inkscape="http://www.inkscape.org/namespaces/inkscape"
   xmlns:sodipodi="http://sodipodi.sourceforge.net/DTD/sodipodi-0.dtd"
   xmlns="http://www.w3.org/2000/svg"
   xmlns:svg="http://www.w3.org/2000/svg"><defs
   id="defs1588"><inkscape:path-effect
     effect="fillet_chamfer"
     id="path-effect1"
     is_visible="true"
     lpeversion="1"
     nodesatellites_param="F,0,0,1,0,0,0,1 @ F,0,0,1,0,1,0,1 @ F,0,0,1,0,1,0,1 @ F,0,0,1,0,0,0,1"
     radius="0"
     unit="px"
     method="auto"
     mode="F"
     chamfer_steps="1"
     flexible="false"
     use_knot_distance="true"
     apply_no_radius="true"
     apply_with_radius="true"
     only_selected="false"
     hide_knots="false" /></defs><sodipodi:namedview
   id="namedview1586"
   pagecolor="#ffffff"
   bordercolor="#000000"
   borderopacity="0.25"
   inkscape:showpageshadow="2"
   inkscape:pageopacity="0.0"
   inkscape:pagecheckerboard="0"
   inkscape:deskcolor="#d1d1d1"
   showgrid="false"
   inkscape:zoom="9.1275325"
   inkscape:cx="19.446658"
   inkscape:cy="19.172761"
   inkscape:window-width="1920"
   inkscape:window-height="1012"
   inkscape:window-x="0"
   inkscape:window-y="32"
   inkscape:window-maximized="1"
   inkscape:current-layer="g1582"><inkscape:grid
     type="xygrid"
     id="grid2657"
     originx="0"
     originy="0"
     spacingy="1"
     spacingx="1"
     units="px"
     visible="false" /></sodipodi:namedview>


    <g
   id="g1582">
        <clipPath
   id="_clip1">
            <rect
   x="0"
   y="0"
   width="32"
   height="32"
   id="rect1513" />
        </clipPath>
        <path
   id="path2704"
   style="clip-rule:evenodd;display:inline;fill:none;fill-rule:evenodd;stroke:#000000;stroke-width:4;stroke-linecap:round;stroke-miterlimit:1.5;stroke-dasharray:none;stroke-opacity:1;paint-order:markers stroke fill"
   d="M 15,6 C 13.002603,6 6,7 6,9 V 23.328883 27 H 26 V 24 9 C 26,7 19,6 17,6 h -1 z"
   transform="translate(0,-1)"
   sodipodi:nodetypes="ssccccsscs" />
    <rect
   style="clip-rule:evenodd;fill:#777777;fill-opacity:1;fill-rule:evenodd;stroke:#000000;stroke-width:4;stroke-linecap:butt;stroke-linejoin:miter;stroke-miterlimit:1.5;stroke-dasharray:none;stroke-opacity:1;paint-order:markers stroke fill"
   id="rect4044"
   width="24"
   height="2"
   x="4"
   y="28"
   ry="0"
   rx="0" /><path
   d="M 26,9 C 26,7 19,6 17,6 H 16 15 C 13,6 6,7 6,9 v 12 h 20 z"
   style="clip-rule:evenodd;display:inline;fill:#b6b6b6;fill-opacity:1;fill-rule:evenodd;stroke:none;stroke-linecap:round;stroke-miterlimit:1.5;stroke-opacity:1"
   id="path1524"
   sodipodi:nodetypes="czszcccc"
   transform="translate(0,-1)" /><path
   id="rect3"
   style="clip-rule:evenodd;fill:#b63939;fill-rule:evenodd;stroke-width:6.94001;stroke-linecap:square;stroke-miterlimit:1.5;stroke-dasharray:6.94001, 41.6401;stroke-opacity:0.291272;paint-order:stroke markers fill"
   d="m 6,16 h 20 v 5 c 0,1 -0.600714,1.5 -1,2 H 7 C 6.6082158,22.5 6,22 6,21 Z"
   sodipodi:nodetypes="ccccccc" /><path
   d="m 6,22 v 2 a 1,1 45 0 0 1,1 h 18 a 1,1 135 0 0 1,-1 v -2 z"
   style="clip-rule:evenodd;display:inline;fill:#1a1a1a;fill-rule:evenodd;stroke-linecap:round;stroke-miterlimit:1.5"
   id="path1578"
   sodipodi:nodetypes="ccccc"
   inkscape:original-d="m 6,22 v 3 h 20 v -3 z"
   inkscape:path-effect="#path-effect1"
   transform="matrix(0.9491412,0,0,1,0.8051528,0)" /><rect
   style="clip-rule:evenodd;fill:#f9f9f9;fill-rule:evenodd;stroke-width:6.4252;stroke-linecap:square;stroke-miterlimit:1.5;stroke-dasharray:6.4252, 38.5512;stroke-opacity:0.291272;paint-order:stroke markers fill;fill-opacity:1"
   id="rect1"
   width="20"
   height="8"
   x="6"
   y="8" /><path
   d="m 7.4776344,16.5 h 3.9999996 v 1 H 7.4776344 v 3 h 3.9999996 v 1 H 7.4776344 v 1 h -1 v -7 h 1 z"
   style="clip-rule:evenodd;fill:#888888;fill-rule:evenodd;stroke-linecap:round;stroke-miterlimit:1.5"
   id="path1538"
   sodipodi:nodetypes="ccccccccccccc" /><path
   d="m 25.482824,15.5 v 7 h -1 v -1 h -4 v -1 h 4 v -3 h -4 v -1 h 4 v -1 z"
   style="clip-rule:evenodd;fill:#888888;fill-rule:evenodd;stroke-linecap:round;stroke-miterlimit:1.5"
   id="path1542"
   sodipodi:nodetypes="ccccccccccccc" /><path
   d="m 18,10 c 0.55,0 0.997,0.445 1,0.994 V 11 23 H 13 V 11 10.994 C 13.003,10.445 13.45,10 14,10 Z"
   style="clip-rule:evenodd;fill:#d8d8d8;fill-rule:evenodd;stroke-linecap:round;stroke-miterlimit:1.5;fill-opacity:1"
   id="path1546"
   transform="translate(0,-2)"
   sodipodi:nodetypes="sccccccss" /><path
   d="m 21,11 h 3 c 0.552,0 1,0.448 1,1 v 4 c 0,0.55 -0.445,0.997 -0.994,1 H 24 21 c -0.552,0 -1,-0.448 -1,-1 v -4 c 0,-0.552 0.448,-1 1,-1 z"
   id="path1550"
   style="clip-rule:evenodd;fill-rule:evenodd;stroke-linecap:round;stroke-miterlimit:1.5"
   transform="translate(0,-2)" /><path
   d="m 12,16 c 0,0.552 -0.448,1 -1,1 H 8 C 7.448,17 7,16.552 7,16 v -4 c 0,-0.552 0.448,-1 1,-1 h 3 c 0.55,0 0.997,0.445 1,0.994 V 12 Z"
   id="path1562"
   style="clip-rule:evenodd;fill-rule:evenodd;stroke-linecap:round;stroke-miterlimit:1.5"
   transform="translate(0,-2)" /><path
   d="M 14.994,15 C 14.445,14.997 14,14.55 14,14 v -4 c 0,-0.552 0.448,-1 1,-1 h 2 c 0.552,0 1,0.448 1,1 v 4 c 0,0.55 -0.445,0.997 -0.994,1 H 17 15 Z"
   id="path1566"
   style="clip-rule:evenodd;fill-rule:evenodd;stroke-linecap:round;stroke-miterlimit:1.5" /><path
   d="m 12,24 h -2 v 2.5 c 0,0.133 0.053,0.26 0.146,0.354 C 10.24,26.947 10.367,27 10.5,27 h 1 c 0.133,0 0.26,-0.053 0.354,-0.146 C 11.947,26.76 12,26.633 12,26.5 Z"
   style="clip-rule:evenodd;fill:#262626;fill-rule:evenodd;stroke-linecap:round;stroke-miterlimit:1.5"
   id="path1570"
   transform="translate(-0.0263628,1)" /><path
   d="m 22,24 h -2 v 2.5 c 0,0.133 0.053,0.26 0.146,0.354 C 20.24,26.947 20.367,27 20.5,27 h 1 c 0.133,0 0.26,-0.053 0.354,-0.146 C 21.947,26.76 22,26.633 22,26.5 Z"
   style="clip-rule:evenodd;fill:#262626;fill-rule:evenodd;stroke-linecap:round;stroke-miterlimit:1.5"
   id="path1574"
   transform="translate(-0.0171758,1)" /><rect
   style="fill:#9b3030;fill-opacity:1;stroke-width:6.4252;stroke-linecap:square;stroke-dasharray:6.4252, 38.5512;stroke-opacity:0.291272;paint-order:stroke markers fill"
   id="rect2"
   width="6"
   height="6"
   x="13"
   y="16" /><rect
   style="fill:#262626;fill-opacity:1;stroke:none;stroke-width:9.61701;stroke-linecap:square;stroke-dasharray:9.61701, 57.7021;stroke-opacity:1;paint-order:stroke markers fill"
   id="rect4"
   width="7"
   height="1.25"
   x="12.5"
   y="6"
   ry="0.49154207" /><circle
   style="fill:#be4545;fill-opacity:1;stroke:none;stroke-width:6.4252;stroke-linecap:square;stroke-dasharray:6.4252, 38.5512;stroke-opacity:1;paint-order:stroke markers fill"
   id="path4"
   cx="10"
   cy="7"
   r="0.5" /><circle
   style="clip-rule:evenodd;fill:#be4545;fill-opacity:1;fill-rule:evenodd;stroke:none;stroke-width:6.4252;stroke-linecap:square;stroke-miterlimit:1.5;stroke-dasharray:6.4252, 38.5512;stroke-opacity:1;paint-order:stroke markers fill"
   id="path4-3"
   cx="21.965649"
   cy="7"
   r="0.5" /><circle
   style="clip-rule:evenodd;fill:#333333;fill-opacity:1;fill-rule:evenodd;stroke:none;stroke-width:6.4252;stroke-linecap:square;stroke-miterlimit:1.5;stroke-dasharray:6.4252, 38.5512;stroke-opacity:1;paint-order:stroke markers fill"
   id="path4-3-3"
   cx="20.482824"
   cy="7"
   r="0.5" /><rect
   style="fill:#888888;fill-opacity:1;stroke-width:3.91145;stroke-linecap:square;paint-order:stroke fill markers"
   id="rect5"
   width="1.0000004"
   height="2.9999993"
   x="10.473637"
   y="17.5" /><rect
   style="fill:#888888;fill-opacity:1;stroke-width:4;stroke-linecap:square;paint-order:stroke fill markers"
   id="rect6"
   width="1"
   height="3"
   x="20.482824"
   y="17.5" /><circle
   style="fill:#f9f9f9;fill-opacity:1;stroke-width:3.99895;stroke-linecap:square;paint-order:stroke fill markers"
   id="path6"
   cx="22.982824"
   cy="19"
   r="0.74980164" /><circle
   style="clip-rule:evenodd;fill:#f9f9f9;fill-opacity:1;fill-rule:evenodd;stroke-width:4.12035;stroke-linecap:square;stroke-miterlimit:1.5;paint-order:stroke fill markers"
   id="path6-5"
   cx="8.9776344"
   cy="19"
   r="0.7725637" /><rect
   style="fill:#222222;fill-opacity:1;stroke-width:6.89059;stroke-linecap:square;paint-order:markers stroke fill"
   id="rect7"
   width="16"
   height="1.5"
   x="8"
   y="22"
   ry="0"
   inkscape:export-filename="../../../../../home/adryd/Documents/rect7.png"
   inkscape:export-xdpi="3072"
   inkscape:export-ydpi="3072" /></g>
</svg>
