<?xml version="1.0" encoding="UTF-8" standalone="no"?>
<svg
   width="32"
   height="32"
   viewBox="0 0 32 32"
   version="1.1"
   xml:space="preserve"
   style="clip-rule:evenodd;fill-rule:evenodd;stroke-linecap:round;stroke-miterlimit:1.5"
   id="svg1584"
   sodipodi:docname="montreal_rem.svg"
   inkscape:export-filename="../../../../../home/adryd/Documents/t1.png"
   inkscape:export-xdpi="3072"
   inkscape:export-ydpi="3072"
   inkscape:version="1.3.2 (091e20ef0f, 2023-11-25, custom)"
   xmlns:inkscape="http://www.inkscape.org/namespaces/inkscape"
   xmlns:sodipodi="http://sodipodi.sourceforge.net/DTD/sodipodi-0.dtd"
   xmlns="http://www.w3.org/2000/svg"
   xmlns:svg="http://www.w3.org/2000/svg"><defs
   id="defs1588" /><sodipodi:namedview
   id="namedview1586"
   pagecolor="#ffffff"
   bordercolor="#000000"
   borderopacity="0.25"
   inkscape:showpageshadow="2"
   inkscape:pageopacity="0.0"
   inkscape:pagecheckerboard="0"
   inkscape:deskcolor="#d1d1d1"
   showgrid="false"
   inkscape:zoom="23.267478"
   inkscape:cx="8.036969"
   inkscape:cy="15.773089"
   inkscape:window-width="1920"
   inkscape:window-height="1012"
   inkscape:window-x="0"
   inkscape:window-y="32"
   inkscape:window-maximized="1"
   inkscape:current-layer="g1582"><inkscape:grid
     type="xygrid"
     id="grid2657"
     originx="0"
     originy="0"
     spacingy="1"
     spacingx="1"
     units="px"
     visible="false" /></sodipodi:namedview>


    <g
   id="g1582">
        <clipPath
   id="_clip1">
            <rect
   x="0"
   y="0"
   width="32"
   height="32"
   id="rect1513" />
        </clipPath>
        
    <path
   d="M 26,10 C 26,8 22,5.9670002 16,6 10,6.0329998 6,8 6,10 v 16 h 6 l 1,-1 h 6 l 1,1 h 6 z"
   style="clip-rule:evenodd;display:inline;fill:#8dd35f;fill-rule:evenodd;stroke:#000000;stroke-width:4;stroke-linecap:round;stroke-miterlimit:1.5;stroke-dasharray:none;stroke-opacity:1;paint-order:stroke fill markers"
   id="path1524"
   sodipodi:nodetypes="czcccccccc"
   transform="translate(0,-1)" /><rect
   style="clip-rule:evenodd;display:inline;fill:#777777;fill-opacity:1;fill-rule:evenodd;stroke:#000000;stroke-width:4;stroke-linecap:butt;stroke-linejoin:miter;stroke-miterlimit:1.5;stroke-dasharray:none;stroke-opacity:1;paint-order:markers stroke fill"
   id="rect4044"
   width="24"
   height="2"
   x="4"
   y="28"
   ry="0"
   rx="0" /><path
   d="m 12,25 h -2 v 2.5 c 0,0.133 0.053,0.26 0.146,0.354 C 10.24,27.947 10.367,28 10.5,28 h 1 c 0.133,0 0.26,-0.053 0.354,-0.146 C 11.947,27.76 12,27.633 12,27.5 Z"
   style="clip-rule:evenodd;fill-rule:evenodd;stroke-linecap:round;stroke-miterlimit:1.5;fill:#262626"
   id="path1570" /><path
   d="m 22,25 h -2 v 2.5 c 0,0.133 0.053,0.26 0.146,0.354 C 20.24,27.947 20.367,28 20.5,28 h 1 c 0.133,0 0.26,-0.053 0.354,-0.146 C 21.947,27.76 22,27.633 22,27.5 Z"
   style="clip-rule:evenodd;fill-rule:evenodd;stroke-linecap:round;stroke-miterlimit:1.5;fill:#262626"
   id="path1574" /><path
   d="M 26,9.6356324 C 26,7.8578546 21.333333,5.9706669 16,6 10.666667,6.0293331 6,7.8172668 6,9.5950446 V 18.76516 c 0,0 5,1.23484 10,1.23484 5,0 10,-1.226166 10,-1.226166 z"
   style="clip-rule:evenodd;display:inline;fill:#333333;fill-rule:evenodd;stroke-width:0.888889;stroke-linecap:round;stroke-miterlimit:1.5"
   id="path1"
   sodipodi:nodetypes="czcczcc" /><path
   d="M 6,19.772149 C 6,19.772149 11,21 16,21 21,21 26,19.777543 26,19.777543 V 24 H 6 Z"
   style="clip-rule:evenodd;display:inline;fill:#f2f2f2;fill-rule:evenodd;stroke-width:0.888889;stroke-linecap:round;stroke-miterlimit:1.5"
   id="path1-3"
   sodipodi:nodetypes="cscccc" /><path
   d="m 6,24 v 2 h 6 l 1,-1 h 6 l 1,1 h 6 V 24 H 22 L 21,23 H 11 l -1,1 z"
   style="clip-rule:evenodd;fill:#1a1a1a;fill-rule:evenodd;stroke-linecap:round;stroke-miterlimit:1.5"
   id="path1578"
   sodipodi:nodetypes="ccccccccccccc" /><rect
   style="fill:#010101;fill-opacity:1;stroke:none;stroke-width:3.79473;stroke-linecap:square;stroke-dasharray:none;stroke-opacity:1;paint-order:stroke fill markers"
   id="rect2"
   width="8"
   height="9"
   x="12"
   y="9"
   ry="1.0212328" /><rect
   style="fill:#010101;fill-opacity:1;stroke:none;stroke-width:4.27618;stroke-linecap:square;stroke-dasharray:none;stroke-opacity:1;paint-order:stroke fill markers"
   id="rect3"
   width="4"
   height="6"
   x="7"
   y="10" /><rect
   style="fill:#010101;fill-opacity:1;stroke:none;stroke-width:4.27618;stroke-linecap:square;stroke-dasharray:none;stroke-opacity:1;paint-order:stroke fill markers"
   id="rect4"
   width="4"
   height="6"
   x="21"
   y="10" /><path
   id="path1-6"
   style="clip-rule:evenodd;display:inline;fill:#ffffff;fill-rule:evenodd;stroke-width:0.888889;stroke-linecap:round;stroke-miterlimit:1.5;fill-opacity:1"
   d="M 7 17 L 7 17.990234 C 7.8919086 18.176446 9.3099361 18.442847 11 18.658203 L 11 17 L 7 17 z " /><path
   id="path1-6-7"
   style="clip-rule:evenodd;display:inline;fill:#ffffff;fill-opacity:1;fill-rule:evenodd;stroke-width:0.888889;stroke-linecap:round;stroke-miterlimit:1.5"
   d="m 25,17 v 0.990234 c -0.891909,0.186212 -2.309936,0.452613 -4,0.667969 V 17 Z" /><rect
   x="12.999999"
   y="7"
   width="4.0000019"
   height="1"
   style="clip-rule:evenodd;fill:#e9a620;fill-rule:evenodd;stroke-width:0.816497;stroke-linecap:round;stroke-miterlimit:1.5"
   id="rect1554" /><rect
   x="17.999996"
   y="7"
   width="1"
   height="1"
   style="clip-rule:evenodd;fill:#e9a620;fill-rule:evenodd;stroke-linecap:round;stroke-miterlimit:1.5"
   id="rect1558" /><rect
   style="fill:#040404;fill-opacity:1;stroke:none;stroke-width:4;stroke-linecap:square;stroke-dasharray:none;stroke-opacity:1;paint-order:stroke fill markers"
   id="rect7"
   width="5.2190928"
   height="0.77150857"
   x="13.352696"
   y="25.618193" /></g>
</svg>
