<?xml version="1.0" encoding="UTF-8" standalone="no"?>
<svg
   width="32"
   height="32"
   viewBox="0 0 32 32"
   version="1.1"
   xml:space="preserve"
   style="clip-rule:evenodd;fill-rule:evenodd;stroke-linecap:round;stroke-miterlimit:1.5"
   id="svg1584"
   sodipodi:docname="meow.svg"
   inkscape:export-filename="../../../../../home/adryd/Documents/gobilevel.png"
   inkscape:export-xdpi="3072"
   inkscape:export-ydpi="3072"
   inkscape:version="1.3.2 (091e20ef0f, 2023-11-25, custom)"
   xmlns:inkscape="http://www.inkscape.org/namespaces/inkscape"
   xmlns:sodipodi="http://sodipodi.sourceforge.net/DTD/sodipodi-0.dtd"
   xmlns="http://www.w3.org/2000/svg"
   xmlns:svg="http://www.w3.org/2000/svg"><defs
   id="defs1588"><inkscape:path-effect
     effect="fillet_chamfer"
     id="path-effect13"
     is_visible="true"
     lpeversion="1"
     nodesatellites_param="F,0,0,1,0,0,0,1 @ F,0,0,1,0,1.6325398,0,1 @ F,0,0,1,0,1.5808956,0,1 @ F,0,0,1,0,0,0,1 @ F,0,0,1,0,0,0,1 @ F,0,0,1,0,0,0,1"
     radius="0"
     unit="px"
     method="auto"
     mode="F"
     chamfer_steps="1"
     flexible="false"
     use_knot_distance="true"
     apply_no_radius="true"
     apply_with_radius="true"
     only_selected="false"
     hide_knots="false" /><inkscape:path-effect
     effect="fillet_chamfer"
     id="path-effect12"
     is_visible="true"
     lpeversion="1"
     nodesatellites_param="F,0,0,1,0,0,0,1 @ F,0,0,1,0,0,0,1 @ F,0,0,1,0,0,0,1 @ F,0,0,1,0,2.0252866,0,1 @ F,0,0,1,0,1.9706049,0,1 @ F,0,0,1,0,0,0,1 @ F,0,0,1,0,0,0,1"
     radius="0"
     unit="px"
     method="auto"
     mode="F"
     chamfer_steps="1"
     flexible="false"
     use_knot_distance="true"
     apply_no_radius="true"
     apply_with_radius="true"
     only_selected="false"
     hide_knots="false" /><inkscape:path-effect
     effect="fillet_chamfer"
     id="path-effect10"
     is_visible="true"
     lpeversion="1"
     nodesatellites_param="F,0,0,1,0,0,0,1 @ F,0,0,1,0,0,0,1 @ F,0,0,1,0,0,0,1 @ F,0,0,1,0,2.0252866,0,1 @ F,0,0,1,0,1.9706049,0,1 @ F,0,0,1,0,0,0,1 @ F,0,0,1,0,0,0,1"
     radius="0"
     unit="px"
     method="auto"
     mode="F"
     chamfer_steps="1"
     flexible="false"
     use_knot_distance="true"
     apply_no_radius="true"
     apply_with_radius="true"
     only_selected="false"
     hide_knots="false" /><inkscape:path-effect
     effect="fillet_chamfer"
     id="path-effect8"
     is_visible="true"
     lpeversion="1"
     nodesatellites_param="F,0,0,1,0,0,0,1 @ F,0,0,1,0,0,0,1 @ F,0,0,1,0,0,0,1 @ F,0,0,1,0,2.0252866,0,1 @ F,0,0,1,0,1.9706049,0,1 @ F,0,0,1,0,0,0,1 @ F,0,0,1,0,0,0,1"
     radius="0"
     unit="px"
     method="auto"
     mode="F"
     chamfer_steps="1"
     flexible="false"
     use_knot_distance="true"
     apply_no_radius="true"
     apply_with_radius="true"
     only_selected="false"
     hide_knots="false" /><inkscape:path-effect
     effect="fillet_chamfer"
     id="path-effect5"
     is_visible="true"
     lpeversion="1"
     nodesatellites_param="F,0,0,1,0,1,0,1 @ F,0,0,1,0,0.98532692,0,1 @ F,0,0,1,0,1,0,1 @ F,0,0,1,0,0.9736372,0,1"
     radius="0"
     unit="px"
     method="auto"
     mode="F"
     chamfer_steps="1"
     flexible="false"
     use_knot_distance="true"
     apply_no_radius="true"
     apply_with_radius="true"
     only_selected="false"
     hide_knots="false" /><inkscape:path-effect
     effect="fillet_chamfer"
     id="path-effect4"
     is_visible="true"
     lpeversion="1"
     nodesatellites_param="F,0,0,1,0,1,0,1 @ F,0,0,1,0,0.99227788,0,1 @ F,0,0,1,0,1,0,1 @ F,0,0,1,0,1,0,1"
     radius="0"
     unit="px"
     method="auto"
     mode="F"
     chamfer_steps="1"
     flexible="false"
     use_knot_distance="true"
     apply_no_radius="true"
     apply_with_radius="true"
     only_selected="false"
     hide_knots="false" /><inkscape:path-effect
     effect="fillet_chamfer"
     id="path-effect3"
     is_visible="true"
     lpeversion="1"
     nodesatellites_param="F,0,0,1,0,0,0,1 @ F,0,0,1,0,0,0,1 @ F,0,0,1,0,0,0,1 @ F,0,0,1,0,0,0,1"
     radius="0"
     unit="px"
     method="auto"
     mode="F"
     chamfer_steps="1"
     flexible="false"
     use_knot_distance="true"
     apply_no_radius="true"
     apply_with_radius="true"
     only_selected="false"
     hide_knots="false" /><inkscape:path-effect
     effect="fillet_chamfer"
     id="path-effect2"
     is_visible="true"
     lpeversion="1"
     nodesatellites_param="F,0,0,1,0,0,0,1 @ F,0,0,1,0,0,0,1 @ F,0,0,1,0,0,0,1 @ F,0,0,1,0,2.0252866,0,1 @ F,0,0,1,0,1.9706049,0,1 @ F,0,0,1,0,0,0,1 @ F,0,0,1,0,0,0,1"
     radius="0"
     unit="px"
     method="auto"
     mode="F"
     chamfer_steps="1"
     flexible="false"
     use_knot_distance="true"
     apply_no_radius="true"
     apply_with_radius="true"
     only_selected="false"
     hide_knots="false" /></defs><sodipodi:namedview
   id="namedview1586"
   pagecolor="#ffffff"
   bordercolor="#000000"
   borderopacity="0.25"
   inkscape:showpageshadow="2"
   inkscape:pageopacity="0.0"
   inkscape:pagecheckerboard="0"
   inkscape:deskcolor="#d1d1d1"
   showgrid="false"
   inkscape:zoom="16.008591"
   inkscape:cx="16.522379"
   inkscape:cy="16.553612"
   inkscape:window-width="1920"
   inkscape:window-height="1012"
   inkscape:window-x="0"
   inkscape:window-y="32"
   inkscape:window-maximized="1"
   inkscape:current-layer="g1582"
   showguides="false"><inkscape:grid
     type="xygrid"
     id="grid2657"
     empspacing="2"
     spacingx="0.5"
     spacingy="0.5"
     originx="0"
     originy="0"
     units="px"
     visible="false" /></sodipodi:namedview>


    <g
   id="g1582">
        <clipPath
   id="_clip1">
            <rect
   x="0"
   y="0"
   width="32"
   height="32"
   id="rect1513" />
        </clipPath>

    <rect
   style="clip-rule:evenodd;fill:#777777;fill-opacity:1;fill-rule:evenodd;stroke:#000000;stroke-width:4;stroke-linecap:butt;stroke-linejoin:miter;stroke-miterlimit:1.5;stroke-dasharray:none;stroke-opacity:1;paint-order:markers stroke fill"
   id="rect4044"
   width="24"
   height="2"
   x="4"
   y="28"
   ry="0"
   rx="0" /><path
   style="clip-rule:evenodd;fill:#f2b333;fill-opacity:1;fill-rule:evenodd;stroke:#000000;stroke-width:4;stroke-linecap:butt;stroke-linejoin:miter;stroke-miterlimit:1.5;stroke-dasharray:none;stroke-opacity:1;paint-order:markers stroke fill"
   d="M 8,26 H 23.978541 L 25,14 23,4 C 22,2.146076 19.5,2 16,2 12.5,2 10,2 9,4 L 7,14 Z"
   id="path22562"
   sodipodi:nodetypes="cccczccc" /><path
   d="m 12,25 h -2 v 2.5 c 0,0.133 0.053,0.26 0.146,0.354 C 10.24,27.947 10.367,28 10.5,28 h 1 c 0.133,0 0.26,-0.053 0.354,-0.146 C 11.947,27.76 12,27.633 12,27.5 Z"
   style="clip-rule:evenodd;fill:#262626;fill-rule:evenodd;stroke-linecap:round;stroke-miterlimit:1.5"
   id="path1570" /><path
   d="m 22,24 h -2 v 2.5 c 0,0.133 0.053,0.26 0.146,0.354 C 20.24,26.947 20.367,27 20.5,27 h 1 c 0.133,0 0.26,-0.053 0.354,-0.146 C 21.947,26.76 22,26.633 22,26.5 Z"
   style="clip-rule:evenodd;fill-rule:evenodd;stroke-linecap:round;stroke-miterlimit:1.5;fill:#262626"
   id="path1574"
   transform="translate(-0.0171758,1)" /><path
   id="rect10"
   style="clip-rule:evenodd;fill-rule:evenodd;stroke-linecap:square;stroke-miterlimit:1.5;fill:#ffc24a;fill-opacity:1;stroke:none;stroke-width:4;stroke-opacity:1;paint-order:stroke fill markers"
   d="M 7.6660156 22 L 8 26 L 23.978516 26 L 24.318359 22 L 7.6660156 22 z " /><path
   id="path9"
   style="clip-rule:evenodd;fill:#ffc24a;fill-opacity:1;fill-rule:evenodd;stroke:none;stroke-width:4;stroke-linecap:butt;stroke-linejoin:miter;stroke-miterlimit:1.5;stroke-dasharray:none;stroke-opacity:1;paint-order:markers stroke fill"
   d="M 16.013482 1.9999999 C 12.732847 1.9999999 10.389529 2.0000018 9.4522047 3.8746507 L 7.9052517 11.611246 L 8.9286206 15.052988 C 9.2712612 16.204964 10.330043 16.996785 11.531895 16.997206 L 20.498731 16.997206 C 21.667849 16.997841 22.698416 16.231958 23.032438 15.111571 L 24.103406 11.51788 L 22.57476 3.8746507 C 21.637435 2.1369224 19.294118 1.9999999 16.013482 1.9999999 z "
   transform="matrix(1.0668654,0,0,1.0668654,-1.0842301,-0.13373072)" /><path
   id="path2"
   style="clip-rule:evenodd;fill:#4d4d4d;fill-opacity:1;fill-rule:evenodd;stroke:none;stroke-width:4;stroke-linecap:butt;stroke-linejoin:miter;stroke-miterlimit:1.5;stroke-dasharray:none;stroke-opacity:1;paint-order:markers stroke fill"
   d="m 16,2 c -3.499996,0 -6.000001,2e-6 -7,2 l -1.1621094,5.8125 1.559166,5.240451 a 2.716981,2.716981 36.729425 0 0 2.6028394,1.942177 l 8.029499,0.0039 a 2.6424134,2.6424134 143.31383 0 0 2.533576,-1.887518 L 24.154297,9.7734375 23,4 C 22.000001,2.1460779 19.499997,2 16,2 Z"
   inkscape:path-effect="#path-effect2"
   inkscape:original-d="m 16,2 c -3.499996,0 -6.000001,2e-6 -7,2 L 7.8378906,9.8125 9.9746094,16.994141 22,17 24.154297,9.7734375 23,4 C 22.000001,2.1460779 19.499997,2 16,2 Z"
   sodipodi:nodetypes="sccccccs" /><path
   id="rect2"
   style="fill:#1a1a1a;stroke-width:3.9987;stroke-linecap:square;paint-order:stroke fill markers"
   d="m 11,8 h 10.006861 a 0.83576992,0.83576992 49.694862 0 1 0.824572,0.972125 l -0.668284,4.041274 A 1.1789452,1.1789452 139.69486 0 1 20,14 H 11.973637 A 1.1493402,1.1493402 40.268839 0 1 10.839935,13.03961 L 10.164399,8.9863939 A 0.84712709,0.84712709 130.26884 0 1 11,8 Z"
   sodipodi:nodetypes="ccccc"
   inkscape:path-effect="#path-effect5"
   inkscape:original-d="M 10,8 H 21.992188 L 21,14 H 11 Z" /><path
   id="rect3"
   style="fill:#1a1a1a;stroke-width:4;stroke-linecap:square;paint-order:stroke fill markers"
   d="m 13,19 h 6.007722 a 0.87596527,0.87596527 48.562508 0 1 0.869201,0.984615 l -0.252888,2.023107 A 1.1327822,1.1327822 138.56251 0 1 18.5,23 h -5 a 1.1327822,1.1327822 41.437492 0 1 -1.124035,-0.992278 l -0.25193,-2.015444 A 0.88278222,0.88278222 131.43749 0 1 13,19 Z"
   sodipodi:nodetypes="ccccc"
   inkscape:path-effect="#path-effect4"
   inkscape:original-d="m 12,19 h 8 l -0.5,4 h -7 z"
   transform="matrix(1.0300691,0,0,1.0000001,-0.4815717,-3.2775e-6)" /><path
   id="rect6"
   style="fill:#333333;fill-opacity:1;stroke:none;stroke-width:19.2749;stroke-linecap:square;stroke-opacity:1;paint-order:stroke fill markers"
   d="M 7.9160156 25 L 8 26 L 23.978516 26 L 24.064453 25 L 7.9160156 25 z " /><ellipse
   style="fill:#f9f9f9;fill-opacity:1;stroke:none;stroke-width:4;stroke-linecap:square;stroke-opacity:1;paint-order:stroke fill markers"
   id="path8"
   cx="16"
   cy="15"
   rx="0.50053424"
   ry="0.5" /></g>
</svg>
