<?xml version="1.0" encoding="UTF-8" standalone="no"?>
<svg
   width="32"
   height="32"
   viewBox="0 0 32 32"
   version="1.1"
   xml:space="preserve"
   style="clip-rule:evenodd;fill-rule:evenodd;stroke-linecap:round;stroke-miterlimit:1.5"
   id="svg1584"
   sodipodi:docname="nyc_r211.svg"
   inkscape:export-filename="../../../../../home/adryd/Documents/nyc.png"
   inkscape:export-xdpi="3072"
   inkscape:export-ydpi="3072"
   inkscape:version="1.3.1 (91b66b0783, 2023-11-16, custom)"
   xmlns:inkscape="http://www.inkscape.org/namespaces/inkscape"
   xmlns:sodipodi="http://sodipodi.sourceforge.net/DTD/sodipodi-0.dtd"
   xmlns="http://www.w3.org/2000/svg"
   xmlns:svg="http://www.w3.org/2000/svg"><defs
   id="defs1588"><inkscape:path-effect
     effect="fillet_chamfer"
     id="path-effect16"
     is_visible="true"
     lpeversion="1"
     nodesatellites_param="F,0,0,1,0,1,0,1 @ F,0,0,1,0,0.54041402,0,1 @ F,0,0,1,0,0.38669911,0,1 @ F,0,1,1,0,0.38669911,0,1 @ F,0,0,1,0,0.895154,0,1"
     radius="0"
     unit="px"
     method="auto"
     mode="F"
     chamfer_steps="1"
     flexible="false"
     use_knot_distance="true"
     apply_no_radius="true"
     apply_with_radius="true"
     only_selected="false"
     hide_knots="false" /><inkscape:path-effect
     effect="fillet_chamfer"
     id="path-effect14"
     is_visible="true"
     lpeversion="1"
     nodesatellites_param="F,0,0,1,0,1,0,1 @ F,0,0,1,0,0.54041402,0,1 @ F,0,0,1,0,0.38669911,0,1 @ F,0,1,1,0,0.38669911,0,1 @ F,0,0,1,0,0.895154,0,1"
     radius="0"
     unit="px"
     method="auto"
     mode="F"
     chamfer_steps="1"
     flexible="false"
     use_knot_distance="true"
     apply_no_radius="true"
     apply_with_radius="true"
     only_selected="false"
     hide_knots="false" /><inkscape:path-effect
     effect="fillet_chamfer"
     id="path-effect13"
     is_visible="true"
     lpeversion="1"
     nodesatellites_param="F,0,0,1,0,0,0,1 @ F,0,0,1,0,0,0,1 @ F,0,0,1,0,0,0,1 @ F,0,0,1,0,0,0,1"
     radius="0"
     unit="px"
     method="auto"
     mode="F"
     chamfer_steps="1"
     flexible="false"
     use_knot_distance="true"
     apply_no_radius="true"
     apply_with_radius="true"
     only_selected="false"
     hide_knots="false" /><inkscape:path-effect
     effect="fillet_chamfer"
     id="path-effect10"
     is_visible="true"
     lpeversion="1"
     nodesatellites_param="F,0,0,1,0,0,0,1 @ F,0,0,1,0,0,0,1 @ F,0,0,1,0,0,0,1 @ F,0,0,1,0,0,0,1 @ F,0,0,1,0,0,0,1 @ F,0,0,1,0,0,0,1 @ F,0,0,1,0,0,0,1"
     radius="0"
     unit="px"
     method="auto"
     mode="F"
     chamfer_steps="1"
     flexible="false"
     use_knot_distance="true"
     apply_no_radius="true"
     apply_with_radius="true"
     only_selected="false"
     hide_knots="false" /><inkscape:path-effect
     effect="fillet_chamfer"
     id="path-effect9"
     is_visible="true"
     lpeversion="1"
     nodesatellites_param="F,0,0,1,0,0,0,1 @ F,0,0,1,0,0.34004677,0,1 @ F,0,0,1,0,0.29988095,0,1 @ F,0,0,1,0,0,0,1"
     radius="0"
     unit="px"
     method="auto"
     mode="F"
     chamfer_steps="1"
     flexible="false"
     use_knot_distance="true"
     apply_no_radius="true"
     apply_with_radius="true"
     only_selected="false"
     hide_knots="false" /><inkscape:path-effect
     effect="fillet_chamfer"
     id="path-effect7"
     is_visible="true"
     lpeversion="1"
     nodesatellites_param="F,0,0,1,0,0,0,1 @ F,0,0,1,0,0.34004677,0,1 @ F,0,0,1,0,0.29988095,0,1 @ F,0,0,1,0,0,0,1"
     radius="0"
     unit="px"
     method="auto"
     mode="F"
     chamfer_steps="1"
     flexible="false"
     use_knot_distance="true"
     apply_no_radius="true"
     apply_with_radius="true"
     only_selected="false"
     hide_knots="false" /><inkscape:path-effect
     effect="fillet_chamfer"
     id="path-effect6"
     is_visible="true"
     lpeversion="1"
     nodesatellites_param="F,0,0,1,0,0,0,1 @ F,0,0,1,0,0.81119314,0,1 @ F,0,0,1,0,0.81322268,0,1 @ F,0,0,1,0,0,0,1"
     radius="0"
     unit="px"
     method="auto"
     mode="F"
     chamfer_steps="1"
     flexible="false"
     use_knot_distance="true"
     apply_no_radius="true"
     apply_with_radius="true"
     only_selected="false"
     hide_knots="false" /><inkscape:path-effect
     effect="fillet_chamfer"
     id="path-effect4"
     is_visible="true"
     lpeversion="1"
     nodesatellites_param="F,0,0,1,0,0,0,1 @ F,0,0,1,0,0.81119314,0,1 @ F,0,0,1,0,0.81322268,0,1 @ F,0,0,1,0,0,0,1"
     radius="0"
     unit="px"
     method="auto"
     mode="F"
     chamfer_steps="1"
     flexible="false"
     use_knot_distance="true"
     apply_no_radius="true"
     apply_with_radius="true"
     only_selected="false"
     hide_knots="false" /></defs><sodipodi:namedview
   id="namedview1586"
   pagecolor="#ffffff"
   bordercolor="#000000"
   borderopacity="0.25"
   inkscape:showpageshadow="2"
   inkscape:pageopacity="0.0"
   inkscape:pagecheckerboard="0"
   inkscape:deskcolor="#d1d1d1"
   showgrid="false"
   inkscape:zoom="15.898818"
   inkscape:cx="15.126911"
   inkscape:cy="18.995123"
   inkscape:window-width="1920"
   inkscape:window-height="1012"
   inkscape:window-x="0"
   inkscape:window-y="32"
   inkscape:window-maximized="1"
   inkscape:current-layer="g1582"><inkscape:grid
     type="xygrid"
     id="grid2657"
     originx="0"
     originy="0"
     spacingy="1"
     spacingx="1"
     units="px"
     visible="false" /></sodipodi:namedview>


    <g
   id="g1582">
        <clipPath
   id="_clip1">
            <rect
   x="0"
   y="0"
   width="32"
   height="32"
   id="rect1513" />
        </clipPath>
        
    <rect
   style="clip-rule:evenodd;fill:#777777;fill-opacity:1;fill-rule:evenodd;stroke:#000000;stroke-width:4;stroke-linecap:butt;stroke-linejoin:miter;stroke-miterlimit:1.5;stroke-dasharray:none;stroke-opacity:1;paint-order:markers stroke fill"
   id="rect4044"
   width="24"
   height="2"
   x="4"
   y="28"
   ry="0"
   rx="0" /><rect
   x="12"
   y="10"
   width="6"
   height="1"
   style="clip-rule:evenodd;fill:#e9a620;fill-rule:evenodd;stroke-linecap:round;stroke-miterlimit:1.5"
   id="rect1554"
   transform="matrix(0.666667,0,0,1,5,-4)" /><rect
   x="19"
   y="10"
   width="1"
   height="1"
   style="clip-rule:evenodd;fill:#e9a620;fill-rule:evenodd;stroke-linecap:round;stroke-miterlimit:1.5"
   id="rect1558"
   transform="translate(-1,-4)" /><path
   style="clip-rule:evenodd;fill:#a9a9a9;fill-rule:evenodd;stroke-width:4;stroke-linecap:square;stroke-miterlimit:1.5;stroke-dasharray:none;paint-order:stroke markers fill;stroke:#000000;stroke-opacity:1;stroke-dashoffset:0;fill-opacity:1"
   d="M 16,5 C 10,5 6,8 6,8 c 0,0 -1,8 -1,9 0,1 1,8 1,8 h 20 c 0,0 1,-7 1,-8 C 27,16 26,8 26,8 26,8 22,5 16,5 Z"
   id="path1"
   sodipodi:nodetypes="zczcczcz"
   inkscape:path-effect="#path-effect10"
   inkscape:original-d="M 16,5 C 10,5 6,8 6,8 c 0,0 -1,8 -1,9 0,1 1,8 1,8 h 20 c 0,0 1,-7 1,-8 C 27,16 26,8 26,8 26,8 22,5 16,5 Z" /><path
   style="clip-rule:evenodd;fill:#1d1d6a;fill-rule:evenodd;stroke-width:5.78268;stroke-linecap:square;stroke-miterlimit:1.5;stroke-dasharray:5.78268, 34.696;paint-order:stroke markers fill;fill-opacity:1"
   d="m 16,6 c -5.4,0 -9,2.7 -9,2.7 0,0 -0.9,7.2 -0.9,8.1 l 6.9,7.194722 5.987621,0.0026 L 25.9,16.8 C 25.9,15.9 25,8.7 25,8.7 25,8.7 21.4,6 16,6 Z"
   id="path1-3"
   sodipodi:nodetypes="zccccccz" /><path
   d="m 18,10 c 0.55,0 0.997,0.519167 1,1.159667 v 0.007 V 24 h -6 v -12.833333 -0.007 C 13.003,10.519167 13.45,10 14,10 Z"
   style="clip-rule:evenodd;display:inline;fill:#0f0f64;fill-opacity:1;fill-rule:evenodd;stroke-width:1.08012;stroke-linecap:round;stroke-miterlimit:1.5"
   id="path1546" /><path
   d="M 14.994,18 C 14.445,17.9965 14,17.475 14,16.833333 V 12.166667 C 14,11.522667 14.448,11 15,11 h 2 c 0.552,0 1,0.522667 1,1.166667 v 4.666666 C 18,17.475 17.555,17.9965 17.006,18 H 17 15 Z"
   id="path1566"
   style="clip-rule:evenodd;fill-rule:evenodd;stroke-width:1.08012;stroke-linecap:round;stroke-miterlimit:1.5" /><path
   d="m 12,24 h -2 v 2.5 c 0,0.133 0.053,0.26 0.146,0.354 C 10.24,26.947 10.367,27 10.5,27 h 1 c 0.133,0 0.26,-0.053 0.354,-0.146 C 11.947,26.76 12,26.633 12,26.5 Z"
   style="clip-rule:evenodd;fill:#262626;fill-rule:evenodd;stroke-linecap:round;stroke-miterlimit:1.5"
   id="path1570"
   transform="translate(-0.0263628,1)" /><path
   d="m 22,24 h -2 v 2.5 c 0,0.133 0.053,0.26 0.146,0.354 C 20.24,26.947 20.367,27 20.5,27 h 1 c 0.133,0 0.26,-0.053 0.354,-0.146 C 21.947,26.76 22,26.633 22,26.5 Z"
   style="clip-rule:evenodd;fill:#262626;fill-rule:evenodd;stroke-linecap:round;stroke-miterlimit:1.5"
   id="path1574"
   transform="translate(-0.0171758,1)" /><ellipse
   style="fill:#f9f9f9;fill-opacity:0;stroke:none;stroke-width:4;stroke-linecap:butt;stroke-linejoin:miter;stroke-dasharray:none;stroke-opacity:1;paint-order:markers stroke fill"
   id="path18741"
   cx="10.576838"
   cy="6.4943991"
   rx="0.50971127"
   ry="0.56243736" /><path
   id="rect1"
   style="fill:#373737;fill-opacity:1;stroke-width:6.4252;stroke-linecap:square;stroke-dasharray:6.4252, 38.5512;paint-order:stroke markers fill"
   d="M 5.8613281 23.998047 C 5.8942516 24.231151 6 25 6 25 L 26 25 C 26 25 26.105748 24.231151 26.138672 23.998047 L 5.8613281 23.998047 z " /><path
   style="fill:#4d4d4d;fill-opacity:1;stroke:none;stroke-width:4;stroke-linecap:square;stroke-dasharray:none;stroke-dashoffset:0;stroke-opacity:1;paint-order:stroke markers fill"
   d="m 6.1,16.8 -0.081589,0.979174 a 1.8403865,1.8403865 70.976527 0 0 0.4839041,1.403492 l 2.3817386,2.571136 a 1.8580075,1.8580075 23.551633 0 0 1.3658633,0.595359 l 1.17028,-0.0018 z"
   id="path4"
   sodipodi:nodetypes="ccccc"
   inkscape:path-effect="#path-effect4"
   inkscape:original-d="m 6.1,16.8 -0.1489477,1.787566 3.4856434,3.762825 1.9835013,-0.003 z" /><path
   style="fill:#4d4d4d;fill-opacity:1;stroke:none;stroke-width:4;stroke-linecap:square;stroke-dasharray:none;stroke-dashoffset:0;stroke-opacity:1;paint-order:stroke markers fill"
   d="m 6.1,16.8 -0.081589,0.979174 a 1.8403865,1.8403865 70.976527 0 0 0.4839041,1.403492 l 2.3817386,2.571136 a 1.8590398,1.8590398 23.563321 0 0 1.3658643,0.595691 l 1.178658,-0.0013 z"
   id="path5"
   sodipodi:nodetypes="ccccc"
   inkscape:path-effect="#path-effect6"
   inkscape:original-d="m 6.1,16.8 -0.1489477,1.787566 3.4856434,3.762825 1.9918803,-0.0022 z"
   transform="matrix(-1,0,0,1,32,0)" /><path
   style="fill:#999999;fill-opacity:1;stroke:none;stroke-width:4;stroke-linecap:square;stroke-dasharray:none;stroke-dashoffset:0;stroke-opacity:1;paint-order:stroke markers fill"
   d="M 7,24 7.7595506,23.240449 A 0.82094552,0.82094552 157.5 0 1 8.3400468,23 h 1.3600723 a 0.72397666,0.72397666 22.5 0 1 0.5119289,0.212048 L 11,24 Z"
   id="path6"
   inkscape:path-effect="#path-effect7"
   inkscape:original-d="m 7,24 1,-1 h 2 l 1,1 z" /><path
   style="fill:#999999;fill-opacity:1;stroke:none;stroke-width:4;stroke-linecap:square;stroke-dasharray:none;stroke-dashoffset:0;stroke-opacity:1;paint-order:stroke markers fill"
   d="M 7,24 7.7595506,23.240449 A 0.82094552,0.82094552 157.5 0 1 8.3400468,23 h 1.3600723 a 0.72397666,0.72397666 22.5 0 1 0.5119289,0.212048 L 11,24 Z"
   id="path7"
   inkscape:path-effect="#path-effect9"
   inkscape:original-d="m 7,24 1,-1 h 2 l 1,1 z"
   transform="translate(14,-0.001953)" /><path
   style="fill:#000000;fill-opacity:1;stroke:none;stroke-width:4;stroke-linecap:square;stroke-dasharray:none;stroke-dashoffset:0;stroke-opacity:1;paint-order:stroke markers fill"
   d="M 11,18 H 9.6568888 A 1.4852138,1.4852138 19.994564 0 1 8.7024277,17.652707 L 7.4427773,16.596142 A 0.71762843,0.71762843 68.307446 0 1 7.1911202,15.963517 L 7.9553812,9.3841163 A 0.61709639,0.61709639 128.69879 0 1 8.3651269,8.8726479 L 11.154783,7.8996481 A 0.63582153,0.63582153 35.385908 0 1 12,8.5 V 17 a 1,1 135 0 1 -1,1 z"
   id="path13"
   sodipodi:nodetypes="cccccc"
   inkscape:path-effect="#path-effect14"
   inkscape:original-d="M 12,18 H 9.1164748 L 7.1465014,16.347633 8,9 12,7.604846 Z" /><rect
   style="fill:#000000;fill-opacity:1;stroke:none;stroke-width:4;stroke-linecap:square;stroke-dasharray:none;stroke-dashoffset:0;stroke-opacity:1;paint-order:stroke markers fill"
   id="rect14"
   width="6"
   height="1"
   x="13"
   y="7.4995136" /><path
   style="fill:#000000;fill-opacity:1;stroke:none;stroke-width:4;stroke-linecap:square;stroke-dasharray:none;stroke-dashoffset:0;stroke-opacity:1;paint-order:stroke markers fill"
   d="M 11,18 H 9.6568888 A 1.4852138,1.4852138 19.994564 0 1 8.7024277,17.652707 L 7.4427773,16.596142 A 0.71762843,0.71762843 68.307446 0 1 7.1911202,15.963517 L 7.9553812,9.3841163 A 0.61709639,0.61709639 128.69879 0 1 8.3651269,8.8726479 L 11.154783,7.8996481 A 0.63582153,0.63582153 35.385908 0 1 12,8.5 V 17 a 1,1 135 0 1 -1,1 z"
   id="path14"
   sodipodi:nodetypes="cccccc"
   inkscape:path-effect="#path-effect16"
   inkscape:original-d="M 12,18 H 9.1164748 L 7.1465014,16.347633 8,9 12,7.604846 Z"
   transform="matrix(-1,0,0,1,32,6.4564945e-8)" /><circle
   style="fill:#ececec;fill-opacity:1;stroke:none;stroke-width:4;stroke-linecap:square;stroke-dasharray:none;stroke-dashoffset:0;stroke-opacity:1;paint-order:stroke markers fill"
   id="path16"
   cx="16"
   cy="22"
   r="1" /></g>
</svg>
