<?xml version="1.0" encoding="UTF-8" standalone="no"?>
<svg
   width="32"
   height="32"
   viewBox="0 0 32 32"
   version="1.1"
   xml:space="preserve"
   style="clip-rule:evenodd;fill-rule:evenodd;stroke-linecap:round;stroke-miterlimit:1.5"
   id="svg1584"
   sodipodi:docname="peter_witt_rochester_forgor.svg"
   inkscape:export-filename="../../../../../home/adryd/Documents/peter_witt_rochester_car_60.png"
   inkscape:export-xdpi="3072"
   inkscape:export-ydpi="3072"
   inkscape:version="1.2.1 (9c6d41e410, 2022-07-14, custom)"
   xmlns:inkscape="http://www.inkscape.org/namespaces/inkscape"
   xmlns:sodipodi="http://sodipodi.sourceforge.net/DTD/sodipodi-0.dtd"
   xmlns="http://www.w3.org/2000/svg"
   xmlns:svg="http://www.w3.org/2000/svg"><defs
   id="defs1588" /><sodipodi:namedview
   id="namedview1586"
   pagecolor="#ffffff"
   bordercolor="#000000"
   borderopacity="0.25"
   inkscape:showpageshadow="2"
   inkscape:pageopacity="0.0"
   inkscape:pagecheckerboard="0"
   inkscape:deskcolor="#d1d1d1"
   showgrid="false"
   inkscape:zoom="16.071381"
   inkscape:cx="-1.8977834"
   inkscape:cy="16.613382"
   inkscape:window-width="1920"
   inkscape:window-height="1011"
   inkscape:window-x="0"
   inkscape:window-y="32"
   inkscape:window-maximized="1"
   inkscape:current-layer="g1582"
   showguides="false"><inkscape:grid
     type="xygrid"
     id="grid2657" /></sodipodi:namedview>


    <g
   id="g1582">
        <clipPath
   id="_clip1">
            <rect
   x="0"
   y="0"
   width="32"
   height="32"
   id="rect1513" />
        </clipPath>
        
    <rect
   style="clip-rule:evenodd;fill:#777777;fill-opacity:1;fill-rule:evenodd;stroke:#000000;stroke-width:4;stroke-linecap:butt;stroke-linejoin:miter;stroke-miterlimit:1.5;stroke-dasharray:none;stroke-opacity:1;paint-order:markers stroke fill"
   id="rect4044"
   width="24"
   height="2"
   x="4"
   y="28"
   ry="0"
   rx="0" /><path
   id="path28938"
   style="clip-rule:evenodd;fill-rule:evenodd;stroke-linecap:round;stroke-miterlimit:1.5;fill:#9c7d68;stroke-width:4;paint-order:stroke fill markers;stroke:#000000;stroke-opacity:1;stroke-dasharray:none"
   d="M 16 5 C 13.484256 5 10 5.5000005 10 6 C 10 6 10.5 6.0000005 10.5 6.5 L 10.5 6.9375 C 10.317551 6.9739205 10.146028 7 10 7 C 7.500005 7 7 7.500002 7 8.5 L 7 24 L 16 24 L 25 24 L 25 8.5 C 25 7.5587198 24.606006 7.0552702 22 7 C 21.853972 7 21.682449 6.9739205 21.5 6.9375 L 21.5 6.5 C 21.5 6.0000005 22 6 22 6 C 22 5.5000005 18.515744 5 16 5 z " /><path
   id="rect28767"
   style="fill:#605141;stroke-width:1.09545;paint-order:stroke fill markers;fill-opacity:1"
   d="m 10,6 c 0,-0.5 3.484253,-1 6,-1 2.515747,0 6,0.5 6,1 0,0 -0.5,0 -0.5,0.5 V 7 h -11 V 6.5 C 10.5,6 10,6 10,6 Z"
   sodipodi:nodetypes="czcscccc" /><path
   id="path1524"
   style="clip-rule:evenodd;display:inline;fill:#840909;fill-opacity:1;fill-rule:evenodd;stroke:none;stroke-width:4;stroke-linecap:round;stroke-miterlimit:1.5;stroke-dasharray:none;stroke-opacity:1;paint-order:stroke fill markers"
   d="M 14,7 C 13,7 11,8 10,8 7.5000025,8 7,8.500001 7,9.5 V 25 h 9 9 V 9.5 C 25,8.5587189 24.606009,8.0552703 22,8 21,8 19,7 18,7 Z"
   transform="translate(0,-1)"
   sodipodi:nodetypes="ccscccsccc" /><path
   d="m 12.026363,25 h -2 L 10,26.5 c -0.00234,0.132979 0.053,0.26 0.146,0.354 C 10.24,26.947 10.367,27 10.5,27 h 1 c 0.133,0 0.26,-0.053 0.354,-0.146 C 11.947,26.76 12,26.633 12,26.5 Z"
   style="clip-rule:evenodd;fill:#262626;fill-rule:evenodd;stroke-linecap:round;stroke-miterlimit:1.5"
   id="path1570"
   transform="translate(-0.0263628,1)"
   sodipodi:nodetypes="ccscsscsc" /><path
   d="m 22.017176,25 h -2 L 20,26.5 c -0.0015,0.132991 0.053,0.26 0.146,0.354 C 20.24,26.947 20.367,27 20.5,27 h 1 c 0.133,0 0.26,-0.053 0.354,-0.146 C 21.947,26.76 22,26.633 22,26.5 Z"
   style="clip-rule:evenodd;fill:#262626;fill-rule:evenodd;stroke-linecap:round;stroke-miterlimit:1.5"
   id="path1574"
   transform="translate(-0.0171758,1)"
   sodipodi:nodetypes="ccscsscsc" /><path
   id="rect923"
   style="fill:#d3c9ab;fill-opacity:1;stroke-width:6.72388;paint-order:markers stroke fill"
   d="m 7,8.5 c 0,0 3.5,0 9,0 5.5,0 9,0 9,0 V 24 H 7 Z"
   sodipodi:nodetypes="czcccc" /><rect
   style="fill:#272727;fill-opacity:1;stroke:none;stroke-width:1.74838;paint-order:markers stroke fill"
   id="rect1531"
   width="4.5"
   height="3.5"
   x="8"
   y="11.5" /><rect
   style="fill:#272727;fill-opacity:1;stroke:none;stroke-width:2.82949;paint-order:markers stroke fill"
   id="rect1533"
   width="5"
   height="5.5"
   x="13.5"
   y="9.5" /><path
   id="rect1533-3-7"
   style="fill:#272727;stroke-width:1.61868;paint-order:markers stroke fill"
   d="M 8,9.5 C 8,9.5 8.5,9 10.25,9 12,9 12.5,9.5 12.5,9.5 V 11 H 8 Z"
   sodipodi:nodetypes="czcccc" /><rect
   style="fill:#272727;fill-opacity:1;stroke:none;stroke-width:1.95475;paint-order:markers stroke fill"
   id="rect1535"
   width="4.5"
   height="3.5"
   x="19.5"
   y="11.5" /><rect
   style="fill:#41682a;fill-opacity:1;stroke:none;stroke-width:2.413;paint-order:markers stroke fill"
   id="rect1577"
   width="18"
   height="6"
   x="7"
   y="16" /><path
   d="M 9,23 8,26 H 24 L 23,23 Z"
   style="clip-rule:evenodd;fill:#1a1a1a;fill-rule:evenodd;stroke-width:0.917659;stroke-linecap:round;stroke-miterlimit:1.5"
   id="path1578"
   sodipodi:nodetypes="ccccc" /><path
   style="fill:#ffffff;fill-opacity:1;stroke:none;paint-order:stroke fill markers"
   d="m 16,19 3,-3 v 6 z"
   id="path1901" /><path
   style="clip-rule:evenodd;fill:#ffffff;fill-opacity:1;fill-rule:evenodd;stroke:none;stroke-linecap:round;stroke-miterlimit:1.5;paint-order:stroke fill markers"
   d="m 16,19 -3,-3 v 6 z"
   id="path1901-6" /><circle
   cx="16"
   cy="19"
   r="1"
   style="clip-rule:evenodd;fill-rule:evenodd;stroke-linecap:round;stroke-miterlimit:1.5;fill:#ffffff;stroke-width:1;stroke-dasharray:none;stroke:#1e2e13;stroke-opacity:1;paint-order:stroke fill markers"
   id="circle1534" /><path
   id="rect1533-3-7-5"
   style="clip-rule:evenodd;fill:#272727;fill-rule:evenodd;stroke-width:1.61868;stroke-linecap:round;stroke-miterlimit:1.5;paint-order:markers stroke fill"
   d="M 19.5,9.5 C 19.5,9.5 20,9 21.75,9 23.5,9 24,9.5 24,9.5 V 11 h -4.5 z"
   sodipodi:nodetypes="czcccc" /><path
   id="rect25543"
   style="clip-rule:evenodd;fill-rule:evenodd;stroke-linecap:round;stroke-miterlimit:1.5;fill:#533527;stroke-width:1.3693;paint-order:stroke fill markers;fill-opacity:1"
   d="m 13.5,6.5 h 5 c 0.277,0 0.587595,0.2372147 0.5,0.5 L 18.5,8.5 C 18.412405,8.7627853 18.277,9 18,9 H 14 C 13.723,9 13.5876,8.7627853 13.5,8.5 L 13,7 C 12.9124,6.7372147 13.223,6.5 13.5,6.5 Z"
   sodipodi:nodetypes="sssssssss" /><path
   id="rect27260"
   style="stroke-width:0.968245;paint-order:stroke fill markers"
   d="m 13.75,7 h 4.5 l -0.5,1.5 h -3.5 z"
   sodipodi:nodetypes="ccccc" /></g>
</svg>
