<?xml version="1.0" encoding="UTF-8" standalone="no"?>
<svg
   width="32"
   height="32"
   viewBox="0 0 32 32"
   version="1.1"
   xml:space="preserve"
   style="clip-rule:evenodd;fill-rule:evenodd;stroke-linecap:round;stroke-miterlimit:1.5"
   id="svg1584"
   sodipodi:docname="bombardier_toronto_t1 (copy).svg"
   inkscape:export-filename="../../../../../home/adryd/Documents/peter_witt_rochester_car_60.png"
   inkscape:export-xdpi="3072"
   inkscape:export-ydpi="3072"
   inkscape:version="1.2.1 (9c6d41e410, 2022-07-14, custom)"
   xmlns:inkscape="http://www.inkscape.org/namespaces/inkscape"
   xmlns:sodipodi="http://sodipodi.sourceforge.net/DTD/sodipodi-0.dtd"
   xmlns="http://www.w3.org/2000/svg"
   xmlns:svg="http://www.w3.org/2000/svg"><defs
   id="defs1588" /><sodipodi:namedview
   id="namedview1586"
   pagecolor="#ffffff"
   bordercolor="#000000"
   borderopacity="0.25"
   inkscape:showpageshadow="2"
   inkscape:pageopacity="0.0"
   inkscape:pagecheckerboard="0"
   inkscape:deskcolor="#d1d1d1"
   showgrid="false"
   inkscape:zoom="3.1263059"
   inkscape:cx="20.951244"
   inkscape:cy="66.532196"
   inkscape:window-width="1920"
   inkscape:window-height="1011"
   inkscape:window-x="0"
   inkscape:window-y="32"
   inkscape:window-maximized="1"
   inkscape:current-layer="svg1584"><inkscape:grid
     type="xygrid"
     id="grid2657" /></sodipodi:namedview>


    <g
   id="g1582">
        <clipPath
   id="_clip1">
            <rect
   x="0"
   y="0"
   width="32"
   height="32"
   id="rect1513" />
        </clipPath>
        
    <rect
   style="clip-rule:evenodd;fill:#777777;fill-opacity:1;fill-rule:evenodd;stroke:#000000;stroke-width:4;stroke-linecap:butt;stroke-linejoin:miter;stroke-miterlimit:1.5;stroke-dasharray:none;stroke-opacity:1;paint-order:markers stroke fill"
   id="rect4044"
   width="24"
   height="2"
   x="4"
   y="28"
   ry="0"
   rx="0" /><path
   d="M 25,9 C 25,6 20,6 16,6 12,6 7,6 7,9 v 18 h 18 z"
   style="clip-rule:evenodd;display:inline;fill:#6f707b;fill-rule:evenodd;stroke-linecap:round;stroke-miterlimit:1.5;stroke:#000000;stroke-opacity:1;stroke-width:4;stroke-dasharray:none;paint-order:stroke fill markers;fill-opacity:1"
   id="path1524"
   sodipodi:nodetypes="sssccs"
   transform="translate(0,-1)" /><path
   d="m 7,23 v 3 h 18 v -3 z"
   style="clip-rule:evenodd;fill:#1a1a1a;fill-rule:evenodd;stroke-width:0.973324;stroke-linecap:round;stroke-miterlimit:1.5"
   id="path1578"
   sodipodi:nodetypes="ccccc" /><path
   d="m 12.026363,25 h -2 L 10,26.5 c -0.00234,0.132979 0.053,0.26 0.146,0.354 C 10.24,26.947 10.367,27 10.5,27 h 1 c 0.133,0 0.26,-0.053 0.354,-0.146 C 11.947,26.76 12,26.633 12,26.5 Z"
   style="clip-rule:evenodd;fill:#262626;fill-rule:evenodd;stroke-linecap:round;stroke-miterlimit:1.5"
   id="path1570"
   transform="translate(-0.0263628,1)"
   sodipodi:nodetypes="ccscsscsc" /><path
   d="m 22.017176,25 h -2 L 20,26.5 c -0.0015,0.132991 0.053,0.26 0.146,0.354 C 20.24,26.947 20.367,27 20.5,27 h 1 c 0.133,0 0.26,-0.053 0.354,-0.146 C 21.947,26.76 22,26.633 22,26.5 Z"
   style="clip-rule:evenodd;fill:#262626;fill-rule:evenodd;stroke-linecap:round;stroke-miterlimit:1.5"
   id="path1574"
   transform="translate(-0.0171758,1)"
   sodipodi:nodetypes="ccscsscsc" /><path
   id="rect923"
   style="fill:#edeee9;stroke-width:4.826;paint-order:markers stroke fill"
   d="m 7,8 c 0,0 3.5,-0.5 9,-0.5 5.5,0 9,0.5 9,0.5 v 8 H 7 Z"
   sodipodi:nodetypes="czcccc" /><rect
   style="fill:#272727;fill-opacity:1;stroke:none;stroke-width:1.74838;paint-order:markers stroke fill"
   id="rect1531"
   width="4.5"
   height="3.5"
   x="8"
   y="11.5" /><rect
   style="fill:#272727;fill-opacity:1;stroke:none;stroke-width:2.55937;paint-order:markers stroke fill"
   id="rect1533"
   width="5"
   height="4.5"
   x="13.5"
   y="10.5" /><rect
   style="clip-rule:evenodd;fill:#000000;fill-opacity:1;fill-rule:evenodd;stroke:none;stroke-width:1.47765;stroke-linecap:round;stroke-miterlimit:1.5;paint-order:markers stroke fill"
   id="rect1533-3"
   width="5"
   height="1.5"
   x="13.5"
   y="8.5" /><rect
   style="clip-rule:evenodd;fill:#272727;fill-opacity:1;fill-rule:evenodd;stroke:none;stroke-width:1.61868;stroke-linecap:round;stroke-miterlimit:1.5;paint-order:markers stroke fill"
   id="rect1533-3-7"
   width="4.5"
   height="2"
   x="8"
   y="9" /><rect
   style="fill:#272727;fill-opacity:1;stroke:none;stroke-width:1.95475;paint-order:markers stroke fill"
   id="rect1535"
   width="4.5"
   height="3.5"
   x="19.5"
   y="11.5" /><rect
   style="clip-rule:evenodd;fill:#272727;fill-opacity:1;fill-rule:evenodd;stroke:none;stroke-width:1.61868;stroke-linecap:round;stroke-miterlimit:1.5;paint-order:markers stroke fill"
   id="rect1533-3-7-5"
   width="4.5"
   height="2"
   x="19.5"
   y="9" /><rect
   style="fill:#af3d28;fill-opacity:1;stroke:none;stroke-width:2.413;paint-order:markers stroke fill"
   id="rect1577"
   width="18"
   height="6"
   x="7"
   y="16" /><circle
   cx="16"
   cy="19"
   r="1"
   style="clip-rule:evenodd;fill-rule:evenodd;stroke-linecap:round;stroke-miterlimit:1.5;fill:#ffffff;stroke-width:1;stroke-dasharray:none;stroke:#4c463f;stroke-opacity:1;paint-order:stroke fill markers"
   id="circle1534" /><circle
   style="fill:#6b372c;fill-opacity:1;stroke:none;stroke-width:4;stroke-dasharray:none;stroke-opacity:1;paint-order:stroke fill markers"
   id="path2880"
   cx="8.5"
   cy="20.5"
   r="0.5" /><rect
   style="fill:#706a64;fill-opacity:1;stroke:none;stroke-width:4;stroke-dasharray:none;stroke-opacity:1;paint-order:stroke fill markers"
   id="rect13044"
   width="18"
   height="1"
   x="7"
   y="22" /><rect
   style="fill:#c97f44;fill-opacity:1;stroke:none;stroke-width:4.65919;stroke-dasharray:none;stroke-opacity:1;paint-order:stroke fill markers"
   id="rect26581"
   width="2.5"
   height="1"
   x="9"
   y="18.5"
   ry="0.5" /></g>
</svg>
